<?xml version="1.0" encoding="UTF-8" standalone="no"?>
<svg
   xmlns:dc="http://purl.org/dc/elements/1.1/"
   xmlns:cc="http://creativecommons.org/ns#"
   xmlns:rdf="http://www.w3.org/1999/02/22-rdf-syntax-ns#"
   xmlns:svg="http://www.w3.org/2000/svg"
   xmlns="http://www.w3.org/2000/svg"
   xmlns:sodipodi="http://sodipodi.sourceforge.net/DTD/sodipodi-0.dtd"
   xmlns:inkscape="http://www.inkscape.org/namespaces/inkscape"
   width="800mm"
   height="600mm"
   viewBox="0 0 800.00003 600.00002"
   version="1.1"
   id="svg2"
   inkscape:version="0.91 r13725"
   sodipodi:docname="#arriere_marquee-bottom.svg">
  <metadata
     id="metadata57">
    <rdf:RDF>
      <cc:Work
         rdf:about="">
        <dc:format>image/svg+xml</dc:format>
        <dc:type
           rdf:resource="http://purl.org/dc/dcmitype/StillImage" />
        <dc:title />
      </cc:Work>
    </rdf:RDF>
  </metadata>
  <defs
     id="defs55">
    <filter
       style="color-interpolation-filters:sRGB;"
       inkscape:label="Greyscale"
       id="filter4377">
      <feColorMatrix
         values="0.21 0.72 0.072 0.2 0 0.21 0.72 0.072 0.2 0 0.21 0.72 0.072 0.2 0 0 0 0 1 0 "
         id="feColorMatrix4379" />
    </filter>
    <filter
       style="color-interpolation-filters:sRGB;"
       inkscape:label="Greyscale"
       id="filter4381">
      <feColorMatrix
         values="0.21 0.72 0.072 0.2 0 0.21 0.72 0.072 0.2 0 0.21 0.72 0.072 0.2 0 0 0 0 1 0 "
         id="feColorMatrix4383" />
    </filter>
  </defs>
  <sodipodi:namedview
     pagecolor="#ffffff"
     bordercolor="#666666"
     borderopacity="1"
     objecttolerance="10"
     gridtolerance="10"
     guidetolerance="10"
     inkscape:pageopacity="0"
     inkscape:pageshadow="2"
     inkscape:window-width="1920"
     inkscape:window-height="1017"
     id="namedview53"
     showgrid="false"
     inkscape:zoom="0.26623208"
     inkscape:cx="964.69287"
     inkscape:cy="1445.59"
     inkscape:window-x="-8"
     inkscape:window-y="-8"
     inkscape:window-maximized="1"
     inkscape:current-layer="svg2"
     inkscape:document-units="mm" />
  <path
     inkscape:connector-curvature="0"
     style="fill:none;fill-rule:evenodd;stroke:#ff0000;stroke-width:0.01;stroke-miterlimit:4;stroke-dasharray:none;stroke-opacity:1"
     d="m 717.88665,12.205456 10,0 0,10 34.29291,0 0,105.000004 10,0 0,49.99996 -10,0 0,125 0,125.00001 10,0 0,50.00002 -10,0 0,104.99999 -34.29291,0 0,10.00001 -10,0 0,-569.999994 0,-10 z"
     id="Part__Feature_f0019" />
  <path
     inkscape:connector-curvature="0"
     style="fill:none;fill-rule:evenodd;stroke:#ff0000;stroke-width:0.01;stroke-miterlimit:4;stroke-dasharray:none;stroke-opacity:1"
     d="m 13.25012,21.222406 0,-9.999999 49.99999,0 0,9.999999 272.99993,0 0,-9.999999 49.99999,0 0,9.999999 273,0 0,-9.999999 50,0 0,9.999999 0,559.999974 0,9.99999 -50,0 0,-9.99999 -273,0 0,9.99999 -49.99999,0 0,-9.99999 -272.99993,0 0,9.99999 -49.99999,0 0,-9.99999 0,-100.00002 9.999981,0 0,-49.99999 -9.999981,0 0,-260.00002 9.999981,0 0,-49.99994 -9.999981,0 0,-100.000004 z m 56.49999,81.000014 0,-27.000004 21.000021,0 0,27.000004 -21.000021,0 z m 173.16994,12.32999 a 15,15.000002 0 0 0 -15,14.99999 l 0,343.33997 a 15,15.000002 0 0 0 15,15 l 291.99998,0 a 15,15.000002 0 0 0 15,-15 l 0,-343.33997 a 15,15.000002 0 0 0 -15,-14.99999 l -291.99998,0 z M 48.75013,75.922416 l -5.50001,5.3 0,15.000001 5.50001,5.300003 11.499991,0 a 1.5,1.5000002 0 0 0 1.500009,-1.5 l 0,-22.600004 a 1.5,1.5000002 0 0 0 -1.500009,-1.5 l -11.499991,0 z"
     id="Part__Feature016_f0003" />
</svg>
