<?xml version="1.0" encoding="UTF-8" standalone="no"?>
<svg
   xmlns:dc="http://purl.org/dc/elements/1.1/"
   xmlns:cc="http://creativecommons.org/ns#"
   xmlns:rdf="http://www.w3.org/1999/02/22-rdf-syntax-ns#"
   xmlns:svg="http://www.w3.org/2000/svg"
   xmlns="http://www.w3.org/2000/svg"
   xmlns:sodipodi="http://sodipodi.sourceforge.net/DTD/sodipodi-0.dtd"
   xmlns:inkscape="http://www.inkscape.org/namespaces/inkscape"
   width="800mm"
   height="600mm"
   viewBox="0 0 800.00003 599.99999"
   version="1.1"
   id="svg2"
   inkscape:version="0.91 r13725"
   sodipodi:docname="#ecran_marquee-top.svg">
  <metadata
     id="metadata53">
    <rdf:RDF>
      <cc:Work
         rdf:about="">
        <dc:format>image/svg+xml</dc:format>
        <dc:type
           rdf:resource="http://purl.org/dc/dcmitype/StillImage" />
        <dc:title />
      </cc:Work>
    </rdf:RDF>
  </metadata>
  <defs
     id="defs51" />
  <sodipodi:namedview
     pagecolor="#ffffff"
     bordercolor="#666666"
     borderopacity="1"
     objecttolerance="10"
     gridtolerance="10"
     guidetolerance="10"
     inkscape:pageopacity="0"
     inkscape:pageshadow="2"
     inkscape:window-width="1920"
     inkscape:window-height="1017"
     id="namedview49"
     showgrid="false"
     inkscape:zoom="0.27431813"
     inkscape:cx="625.85746"
     inkscape:cy="1259.8998"
     inkscape:window-x="-8"
     inkscape:window-y="-8"
     inkscape:window-maximized="1"
     inkscape:current-layer="svg2"
     inkscape:document-units="mm" />
  <path
     inkscape:connector-curvature="0"
     style="fill:none;fill-rule:evenodd;stroke:#ff0000;stroke-width:0.01;stroke-miterlimit:4;stroke-dasharray:none;stroke-opacity:1"
     d="m 588.57417,592.8004 0,-50 -10,0 0,-162 10,0 0,-49.99999 -10,0 0,-162 10,0 0,-50.00001 -10,0 -105,0 0,10 -50,0 0,-10 -250.00001,0 0,10 -50,0 0,-10 -104.999978,0 -9.9999975,0 0,50.00001 9.9999975,0 0,162 -9.9999975,0 0,49.99999 9.9999975,0 0,162 -9.9999975,0 0,50 9.9999975,0 559.999978,0 10,0 z m -95.5,-430.30252 -379.00001,0 0,305 379,0 0,-305 z m -395.999988,320 0,44.99999 412.999978,0 0,-44.99999 -412.999978,0 z"
     id="Part__Feature_f0003" />
  <path
     inkscape:connector-curvature="0"
     style="fill:none;fill-rule:evenodd;stroke:#ff0000;stroke-width:0.01;stroke-miterlimit:4;stroke-dasharray:none;stroke-opacity:1"
     d="m 684.01018,591.73279 -50.00001,0 0,-10.00001 -36.49999,0 0,-560.000057 36.49999,0 0,-10.00001 50.00001,0 0,10.00001 36.49999,0 0,560.000057 -36.49999,0 0,10.00001 z"
     id="Pad_f0013" />
  <path
     inkscape:connector-curvature="0"
     style="fill:none;fill-rule:evenodd;stroke:#ff0000;stroke-width:0.01;stroke-miterlimit:4;stroke-dasharray:none;stroke-opacity:1"
     d="m 10.646542,31.883461 40.00001,0 0,5 10,0 0,50 -10,0 0,5 -40.00001,0 0,-60 z"
     id="Part__Feature_f0009" />
  <path
     inkscape:connector-curvature="0"
     style="fill:none;fill-rule:evenodd;stroke:#ff0000;stroke-width:0.01;stroke-miterlimit:4;stroke-dasharray:none;stroke-opacity:1"
     d="m 66.662582,31.883456 39.999998,0 0,5 10,0 0,50.00001 -10,0 0,5 -39.999998,0 0,-60.00001 z"
     id="Part__Feature_f0009-5" />
  <rect
     style="fill:none;fill-opacity:1;stroke:#ff0000;stroke-width:0.00831569;stroke-miterlimit:4;stroke-dasharray:none;stroke-dashoffset:0;stroke-opacity:1"
     id="rect4146"
     width="103.99169"
     height="14.991686"
     x="-113.87931"
     y="130.42685"
     transform="matrix(0,-1,1,0,0,0)" />
  <rect
     y="147.88638"
     x="-113.87931"
     height="14.991686"
     width="103.99169"
     id="rect4148"
     style="fill:none;fill-opacity:1;stroke:#ff0000;stroke-width:0.00831569;stroke-miterlimit:4;stroke-dasharray:none;stroke-dashoffset:0;stroke-opacity:1"
     transform="matrix(0,-1,1,0,0,0)" />
  <g
     style="font-style:normal;font-weight:normal;font-size:11.28888988px;line-height:125%;font-family:sans-serif;letter-spacing:0px;word-spacing:0px;fill:#00ff00;fill-opacity:1;stroke:none;stroke-width:1px;stroke-linecap:butt;stroke-linejoin:miter;stroke-opacity:1"
     id="text4150">
    <path
       d="m 208.07455,288.89354 0,1.17409 q -0.56224,-0.52365 -1.20165,-0.78273 -0.6339,-0.25907 -1.35048,-0.25907 -1.41111,0 -2.16076,0.86541 -0.74966,0.8599 -0.74966,2.49149 0,1.62609 0.74966,2.4915 0.74965,0.85989 2.16076,0.85989 0.71658,0 1.35048,-0.25907 0.63941,-0.25907 1.20165,-0.78272 l 0,1.16306 q -0.58429,0.39688 -1.24024,0.59531 -0.65043,0.19844 -1.37804,0.19844 -1.86862,0 -2.94349,-1.14101 -1.07487,-1.14653 -1.07487,-3.1254 0,-1.98437 1.07487,-3.12539 1.07487,-1.14652 2.94349,-1.14652 0.73863,0 1.38907,0.19843 0.65594,0.19293 1.22921,0.58429 z"
       style="fill:#00ff00;fill-opacity:1"
       id="path4157" />
    <path
       d="m 215.04191,293.14892 0,0.4961 -4.66328,0 q 0.0661,1.04731 0.62838,1.59852 0.56775,0.5457 1.57648,0.5457 0.58429,0 1.12999,-0.14331 0.55121,-0.14332 1.09141,-0.42995 l 0,0.95912 q -0.54571,0.23151 -1.11897,0.35277 -0.57327,0.12127 -1.16307,0.12127 -1.47725,0 -2.34266,-0.8599 -0.8599,-0.85989 -0.8599,-2.32612 0,-1.51585 0.8158,-2.4033 0.82131,-0.89297 2.21038,-0.89297 1.24574,0 1.96783,0.80477 0.72761,0.79927 0.72761,2.1773 z m -1.01424,-0.29765 q -0.011,-0.83234 -0.46853,-1.32843 -0.452,-0.4961 -1.20165,-0.4961 -0.84887,0 -1.3615,0.47956 -0.50712,0.47956 -0.58429,1.35048 l 3.61597,-0.006 z"
       style="fill:#00ff00;fill-opacity:1"
       id="path4159" />
    <path
       d="m 217.70979,288.56281 0,1.75287 2.08911,0 0,0.78823 -2.08911,0 0,3.35139 q 0,0.75517 0.20395,0.97014 0.20946,0.21498 0.84336,0.21498 l 1.0418,0 0,0.84887 -1.0418,0 q -1.17409,0 -1.62057,-0.43546 -0.44649,-0.44097 -0.44649,-1.59853 l 0,-3.35139 -0.74414,0 0,-0.78823 0.74414,0 0,-1.75287 1.01975,0 z"
       style="fill:#00ff00;fill-opacity:1"
       id="path4161" />
    <path
       d="m 222.14156,288.56281 0,1.75287 2.08911,0 0,0.78823 -2.08911,0 0,3.35139 q 0,0.75517 0.20395,0.97014 0.20946,0.21498 0.84336,0.21498 l 1.0418,0 0,0.84887 -1.0418,0 q -1.17409,0 -1.62057,-0.43546 -0.44649,-0.44097 -0.44649,-1.59853 l 0,-3.35139 -0.74414,0 0,-0.78823 0.74414,0 0,-1.75287 1.01975,0 z"
       style="fill:#00ff00;fill-opacity:1"
       id="path4163" />
    <path
       d="m 230.85076,293.14892 0,0.4961 -4.66328,0 q 0.0661,1.04731 0.62839,1.59852 0.56775,0.5457 1.57647,0.5457 0.58429,0 1.12999,-0.14331 0.55122,-0.14332 1.09141,-0.42995 l 0,0.95912 q -0.5457,0.23151 -1.11897,0.35277 -0.57326,0.12127 -1.16306,0.12127 -1.47726,0 -2.34267,-0.8599 -0.85989,-0.85989 -0.85989,-2.32612 0,-1.51585 0.8158,-2.4033 0.82131,-0.89297 2.21037,-0.89297 1.24575,0 1.96784,0.80477 0.7276,0.79927 0.7276,2.1773 z m -1.01423,-0.29765 q -0.011,-0.83234 -0.46854,-1.32843 -0.45199,-0.4961 -1.20165,-0.4961 -0.84887,0 -1.3615,0.47956 -0.50712,0.47956 -0.58429,1.35048 l 3.61598,-0.006 z"
       style="fill:#00ff00;fill-opacity:1"
       id="path4165" />
    <path
       d="m 240.17182,291.25274 0,-3.34036 1.01423,0 0,8.57691 -1.01423,0 0,-0.92604 q -0.31971,0.55121 -0.81029,0.82131 -0.48507,0.26458 -1.16858,0.26458 -1.11896,0 -1.82452,-0.89297 -0.70004,-0.89297 -0.70004,-2.34818 0,-1.4552 0.70004,-2.34817 0.70556,-0.89297 1.82452,-0.89297 0.68351,0 1.16858,0.27009 0.49058,0.26459 0.81029,0.8158 z m -3.45612,2.15525 q 0,1.11897 0.4575,1.75838 0.46303,0.6339 1.2678,0.6339 0.80477,0 1.26779,-0.6339 0.46303,-0.63941 0.46303,-1.75838 0,-1.11896 -0.46303,-1.75286 -0.46302,-0.63941 -1.26779,-0.63941 -0.80477,0 -1.2678,0.63941 -0.4575,0.6339 -0.4575,1.75286 z"
       style="fill:#00ff00;fill-opacity:1"
       id="path4167" />
    <path
       d="m 248.5558,293.14892 0,0.4961 -4.66328,0 q 0.0661,1.04731 0.62838,1.59852 0.56776,0.5457 1.57648,0.5457 0.58429,0 1.12999,-0.14331 0.55122,-0.14332 1.09141,-0.42995 l 0,0.95912 q -0.54571,0.23151 -1.11897,0.35277 -0.57326,0.12127 -1.16306,0.12127 -1.47726,0 -2.34267,-0.8599 -0.8599,-0.85989 -0.8599,-2.32612 0,-1.51585 0.8158,-2.4033 0.82131,-0.89297 2.21038,-0.89297 1.24574,0 1.96784,0.80477 0.7276,0.79927 0.7276,2.1773 z m -1.01424,-0.29765 q -0.011,-0.83234 -0.46853,-1.32843 -0.452,-0.4961 -1.20165,-0.4961 -0.84887,0 -1.3615,0.47956 -0.50712,0.47956 -0.58429,1.35048 l 3.61597,-0.006 z m -0.97565,-5.39089 1.09692,0 -1.79696,2.07257 -0.84336,0 1.5434,-2.07257 z"
       style="fill:#00ff00;fill-opacity:1"
       id="path4169" />
    <path
       d="m 254.66326,290.5527 0,0.94809 q -0.42994,-0.23702 -0.8654,-0.35278 -0.42995,-0.12127 -0.87092,-0.12127 -0.98668,0 -1.53238,0.62839 -0.54571,0.62287 -0.54571,1.75286 0,1.13 0.54571,1.75838 0.5457,0.62287 1.53238,0.62287 0.44097,0 0.87092,-0.11575 0.43546,-0.12127 0.8654,-0.35829 l 0,0.93707 q -0.42443,0.19843 -0.88194,0.29765 -0.452,0.0992 -0.96463,0.0992 -1.39457,0 -2.21588,-0.87643 -0.82131,-0.87643 -0.82131,-2.36472 0,-1.51033 0.82682,-2.37573 0.83234,-0.86541 2.27652,-0.86541 0.46853,0 0.91502,0.0992 0.44648,0.0937 0.8654,0.28663 z"
       style="fill:#00ff00;fill-opacity:1"
       id="path4171" />
    <path
       d="m 258.83045,291.02674 q -0.8158,0 -1.28984,0.63941 -0.47405,0.6339 -0.47405,1.74184 0,1.10795 0.46854,1.74736 0.47404,0.63389 1.29535,0.63389 0.81029,0 1.28433,-0.6394 0.47405,-0.63941 0.47405,-1.74185 0,-1.09691 -0.47405,-1.73632 -0.47404,-0.64493 -1.28433,-0.64493 z m 0,-0.85989 q 1.32292,0 2.07808,0.85989 0.75517,0.8599 0.75517,2.38125 0,1.51585 -0.75517,2.38125 -0.75516,0.8599 -2.07808,0.8599 -1.32843,0 -2.08359,-0.8599 -0.74965,-0.8654 -0.74965,-2.38125 0,-1.52135 0.74965,-2.38125 0.75516,-0.85989 2.08359,-0.85989 z"
       style="fill:#00ff00;fill-opacity:1"
       id="path4173" />
    <path
       d="m 263.23467,294.05292 0,-3.73724 1.01423,0 0,3.69865 q 0,0.87643 0.34176,1.31741 0.34175,0.43546 1.02526,0.43546 0.82131,0 1.29535,-0.52366 0.47956,-0.52365 0.47956,-1.42765 l 0,-3.50021 1.01424,0 0,6.17361 -1.01424,0 0,-0.94809 q -0.36932,0.56224 -0.8599,0.83785 -0.48507,0.27009 -1.12999,0.27009 -1.06384,0 -1.61506,-0.66146 -0.55121,-0.66146 -0.55121,-1.93476 z m 2.55212,-3.88607 0,0 z"
       style="fill:#00ff00;fill-opacity:1"
       id="path4175" />
    <path
       d="m 271.48635,295.56325 0,3.27422 -1.01974,0 0,-8.52179 1.01974,0 0,0.93706 q 0.31971,-0.55121 0.80478,-0.8158 0.49058,-0.27009 1.16857,-0.27009 1.12448,0 1.82453,0.89297 0.70555,0.89297 0.70555,2.34817 0,1.45521 -0.70555,2.34818 -0.70005,0.89297 -1.82453,0.89297 -0.67799,0 -1.16857,-0.26458 -0.48507,-0.2701 -0.80478,-0.82131 z m 3.45061,-2.15526 q 0,-1.11896 -0.46302,-1.75286 -0.45751,-0.63941 -1.26228,-0.63941 -0.80478,0 -1.2678,0.63941 -0.45751,0.6339 -0.45751,1.75286 0,1.11897 0.45751,1.75838 0.46302,0.6339 1.2678,0.6339 0.80477,0 1.26228,-0.6339 0.46302,-0.63941 0.46302,-1.75838 z"
       style="fill:#00ff00;fill-opacity:1"
       id="path4177" />
    <path
       d="m 282.95164,293.14892 0,0.4961 -4.66329,0 q 0.0661,1.04731 0.62839,1.59852 0.56775,0.5457 1.57648,0.5457 0.58428,0 1.12999,-0.14331 0.55121,-0.14332 1.0914,-0.42995 l 0,0.95912 q -0.5457,0.23151 -1.11896,0.35277 -0.57327,0.12127 -1.16307,0.12127 -1.47726,0 -2.34266,-0.8599 -0.8599,-0.85989 -0.8599,-2.32612 0,-1.51585 0.8158,-2.4033 0.82131,-0.89297 2.21037,-0.89297 1.24575,0 1.96784,0.80477 0.72761,0.79927 0.72761,2.1773 z m -1.01424,-0.29765 q -0.011,-0.83234 -0.46853,-1.32843 -0.452,-0.4961 -1.20165,-0.4961 -0.84887,0 -1.3615,0.47956 -0.50712,0.47956 -0.58429,1.35048 l 3.61597,-0.006 z"
       style="fill:#00ff00;fill-opacity:1"
       id="path4179" />
    <path
       d="m 293.49087,293.14892 0,0.4961 -4.66328,0 q 0.0661,1.04731 0.62839,1.59852 0.56775,0.5457 1.57647,0.5457 0.58429,0 1.12999,-0.14331 0.55122,-0.14332 1.09141,-0.42995 l 0,0.95912 q -0.5457,0.23151 -1.11897,0.35277 -0.57326,0.12127 -1.16306,0.12127 -1.47726,0 -2.34267,-0.8599 -0.85989,-0.85989 -0.85989,-2.32612 0,-1.51585 0.8158,-2.4033 0.82131,-0.89297 2.21037,-0.89297 1.24575,0 1.96784,0.80477 0.7276,0.79927 0.7276,2.1773 z m -1.01423,-0.29765 q -0.011,-0.83234 -0.46854,-1.32843 -0.45199,-0.4961 -1.20165,-0.4961 -0.84887,0 -1.3615,0.47956 -0.50711,0.47956 -0.58429,1.35048 l 3.61598,-0.006 z"
       style="fill:#00ff00;fill-opacity:1"
       id="path4181" />
    <path
       d="m 299.09122,290.49758 0,0.95911 q -0.42995,-0.22048 -0.89297,-0.33073 -0.46302,-0.11024 -0.95911,-0.11024 -0.75517,0 -1.13551,0.23151 -0.37482,0.23151 -0.37482,0.69453 0,0.35278 0.27009,0.55673 0.2701,0.19844 1.0859,0.38034 l 0.34726,0.0772 q 1.08038,0.23151 1.53238,0.65594 0.45751,0.41893 0.45751,1.17409 0,0.8599 -0.68351,1.3615 -0.67799,0.50161 -1.86862,0.50161 -0.49609,0 -1.03628,-0.0992 -0.53468,-0.0937 -1.12999,-0.28663 l 0,-1.04731 q 0.56224,0.29215 1.10794,0.44097 0.5457,0.14332 1.08038,0.14332 0.71658,0 1.10243,-0.24254 0.38585,-0.24804 0.38585,-0.69453 0,-0.41341 -0.28112,-0.63389 -0.2756,-0.22049 -1.21818,-0.42444 l -0.35278,-0.0827 q -0.94258,-0.19844 -1.3615,-0.60634 -0.41893,-0.41341 -0.41893,-1.12999 0,-0.87092 0.61737,-1.34497 0.61736,-0.47404 1.75286,-0.47404 0.56224,0 1.05833,0.0827 0.4961,0.0827 0.91502,0.24805 z"
       style="fill:#00ff00;fill-opacity:1"
       id="path4183" />
    <path
       d="m 302.04573,288.56281 0,1.75287 2.08911,0 0,0.78823 -2.08911,0 0,3.35139 q 0,0.75517 0.20395,0.97014 0.20946,0.21498 0.84336,0.21498 l 1.0418,0 0,0.84887 -1.0418,0 q -1.17409,0 -1.62057,-0.43546 -0.44649,-0.44097 -0.44649,-1.59853 l 0,-3.35139 -0.74414,0 0,-0.78823 0.74414,0 0,-1.75287 1.01975,0 z"
       style="fill:#00ff00;fill-opacity:1"
       id="path4185" />
    <path
       d="m 311.8739,293.38595 q -1.22921,0 -1.70325,0.28112 -0.47405,0.28112 -0.47405,0.95911 0,0.54019 0.35278,0.8599 0.35829,0.31419 0.97014,0.31419 0.84336,0 1.35048,-0.59531 0.51263,-0.60083 0.51263,-1.59302 l 0,-0.22599 -1.00873,0 z m 2.02296,-0.41893 0,3.52227 -1.01423,0 0,-0.93707 q -0.34727,0.56224 -0.86541,0.83234 -0.51814,0.26458 -1.2678,0.26458 -0.94809,0 -1.51033,-0.52917 -0.55672,-0.53467 -0.55672,-1.42764 0,-1.0418 0.69453,-1.57097 0.70004,-0.52916 2.08359,-0.52916 l 1.42214,0 0,-0.0992 q 0,-0.70005 -0.46302,-1.08038 -0.45751,-0.38586 -1.28985,-0.38586 -0.52916,0 -1.03077,0.12678 -0.50161,0.12678 -0.96463,0.38034 l 0,-0.93706 q 0.55673,-0.21498 1.08039,-0.31971 0.52365,-0.11024 1.01974,-0.11024 1.33946,0 2.00092,0.69453 0.66145,0.69453 0.66145,2.10564 z"
       style="fill:#00ff00;fill-opacity:1"
       id="path4187" />
    <path
       d="m 324.392,291.50079 q 0.38034,-0.68351 0.90951,-1.00872 0.52917,-0.32522 1.24575,-0.32522 0.96462,0 1.48828,0.67799 0.52365,0.67249 0.52365,1.91823 l 0,3.72622 -1.01975,0 0,-3.69314 q 0,-0.88746 -0.31419,-1.31741 -0.31419,-0.42995 -0.95911,-0.42995 -0.78824,0 -1.24575,0.52366 -0.45751,0.52365 -0.45751,1.42765 l 0,3.48919 -1.01975,0 0,-3.69314 q 0,-0.89297 -0.31419,-1.31741 -0.31419,-0.42995 -0.97014,-0.42995 -0.77721,0 -1.23472,0.52917 -0.45751,0.52365 -0.45751,1.42214 l 0,3.48919 -1.01975,0 0,-6.17361 1.01975,0 0,0.95911 q 0.34727,-0.56775 0.83233,-0.83785 0.48507,-0.27009 1.15204,-0.27009 0.67249,0 1.14102,0.34175 0.47405,0.34176 0.70004,0.99219 z"
       style="fill:#00ff00;fill-opacity:1"
       id="path4189" />
    <path
       d="m 332.97994,291.02674 q -0.8158,0 -1.28984,0.63941 -0.47405,0.6339 -0.47405,1.74184 0,1.10795 0.46853,1.74736 0.47405,0.63389 1.29536,0.63389 0.81029,0 1.28433,-0.6394 0.47405,-0.63941 0.47405,-1.74185 0,-1.09691 -0.47405,-1.73632 -0.47404,-0.64493 -1.28433,-0.64493 z m 0,-0.85989 q 1.32292,0 2.07808,0.85989 0.75517,0.8599 0.75517,2.38125 0,1.51585 -0.75517,2.38125 -0.75516,0.8599 -2.07808,0.8599 -1.32843,0 -2.08359,-0.8599 -0.74966,-0.8654 -0.74966,-2.38125 0,-1.52135 0.74966,-2.38125 0.75516,-0.85989 2.08359,-0.85989 z"
       style="fill:#00ff00;fill-opacity:1"
       id="path4191" />
    <path
       d="m 341.55134,291.25274 0,-3.34036 1.01423,0 0,8.57691 -1.01423,0 0,-0.92604 q -0.31971,0.55121 -0.81029,0.82131 -0.48507,0.26458 -1.16858,0.26458 -1.11896,0 -1.82452,-0.89297 -0.70004,-0.89297 -0.70004,-2.34818 0,-1.4552 0.70004,-2.34817 0.70556,-0.89297 1.82452,-0.89297 0.68351,0 1.16858,0.27009 0.49058,0.26459 0.81029,0.8158 z m -3.45612,2.15525 q 0,1.11897 0.4575,1.75838 0.46303,0.6339 1.2678,0.6339 0.80477,0 1.2678,-0.6339 0.46302,-0.63941 0.46302,-1.75838 0,-1.11896 -0.46302,-1.75286 -0.46303,-0.63941 -1.2678,-0.63941 -0.80477,0 -1.2678,0.63941 -0.4575,0.6339 -0.4575,1.75286 z"
       style="fill:#00ff00;fill-opacity:1"
       id="path4193" />
    <path
       d="m 344.65468,290.31568 1.01424,0 0,6.17361 -1.01424,0 0,-6.17361 z m 0,-2.4033 1.01424,0 0,1.28433 -1.01424,0 0,-1.28433 z"
       style="fill:#00ff00;fill-opacity:1"
       id="path4195" />
    <path
       d="m 352.77409,290.31568 0,6.17361 -1.01975,0 0,-5.38538 -2.78364,0 0,5.38538 -1.01975,0 0,-5.38538 -0.97014,0 0,-0.78823 0.97014,0 0,-0.42995 q 0,-1.00873 0.47405,-1.48828 0.47955,-0.48507 1.46623,-0.48507 l 1.01975,0 0,0.84336 -0.97014,0 q -0.5457,0 -0.76068,0.22048 -0.20946,0.22049 -0.20946,0.79375 l 0,0.54571 3.80339,0 z m -1.01975,-2.39228 1.01975,0 0,1.28433 -1.01975,0 0,-1.28433 z"
       style="fill:#00ff00;fill-opacity:1"
       id="path4197" />
    <path
       d="m 360.18793,293.14892 0,0.4961 -4.66328,0 q 0.0661,1.04731 0.62839,1.59852 0.56775,0.5457 1.57647,0.5457 0.58429,0 1.12999,-0.14331 0.55122,-0.14332 1.09141,-0.42995 l 0,0.95912 q -0.5457,0.23151 -1.11897,0.35277 -0.57326,0.12127 -1.16306,0.12127 -1.47726,0 -2.34267,-0.8599 -0.85989,-0.85989 -0.85989,-2.32612 0,-1.51585 0.8158,-2.4033 0.82131,-0.89297 2.21037,-0.89297 1.24575,0 1.96784,0.80477 0.7276,0.79927 0.7276,2.1773 z m -1.01423,-0.29765 q -0.011,-0.83234 -0.46854,-1.32843 -0.45199,-0.4961 -1.20165,-0.4961 -0.84887,0 -1.3615,0.47956 -0.50712,0.47956 -0.58429,1.35048 l 3.61598,-0.006 z"
       style="fill:#00ff00;fill-opacity:1"
       id="path4199" />
    <path
       d="m 365.42999,291.26377 q -0.17088,-0.0992 -0.37483,-0.14332 -0.19843,-0.0496 -0.44097,-0.0496 -0.85989,0 -1.32292,0.56224 -0.4575,0.55673 -0.4575,1.60404 l 0,3.25217 -1.01975,0 0,-6.17361 1.01975,0 0,0.95911 q 0.3197,-0.56224 0.83233,-0.83233 0.51263,-0.27561 1.24575,-0.27561 0.10473,0 0.23151,0.0165 0.12678,0.011 0.28112,0.0386 l 0.006,1.0418 z"
       style="fill:#00ff00;fill-opacity:1"
       id="path4201" />
    <path
       d="m 375.37942,293.14892 0,0.4961 -4.66329,0 q 0.0661,1.04731 0.62839,1.59852 0.56775,0.5457 1.57648,0.5457 0.58428,0 1.12999,-0.14331 0.55121,-0.14332 1.0914,-0.42995 l 0,0.95912 q -0.5457,0.23151 -1.11896,0.35277 -0.57327,0.12127 -1.16307,0.12127 -1.47726,0 -2.34266,-0.8599 -0.8599,-0.85989 -0.8599,-2.32612 0,-1.51585 0.8158,-2.4033 0.82131,-0.89297 2.21037,-0.89297 1.24575,0 1.96784,0.80477 0.72761,0.79927 0.72761,2.1773 z m -1.01424,-0.29765 q -0.011,-0.83234 -0.46853,-1.32843 -0.452,-0.4961 -1.20165,-0.4961 -0.84887,0 -1.3615,0.47956 -0.50712,0.47956 -0.58429,1.35048 l 3.61597,-0.006 z"
       style="fill:#00ff00;fill-opacity:1"
       id="path4203" />
    <path
       d="m 382.1759,292.76307 0,3.72622 -1.01424,0 0,-3.69314 q 0,-0.87644 -0.34175,-1.3119 -0.34175,-0.43546 -1.02526,-0.43546 -0.82131,0 -1.29536,0.52366 -0.47404,0.52365 -0.47404,1.42765 l 0,3.48919 -1.01975,0 0,-6.17361 1.01975,0 0,0.95911 q 0.3638,-0.55673 0.85438,-0.83233 0.4961,-0.27561 1.14102,-0.27561 1.06384,0 1.60955,0.66146 0.5457,0.65594 0.5457,1.93476 z"
       style="fill:#00ff00;fill-opacity:1"
       id="path4205" />
    <path
       d="m 390.92921,287.91238 0,0.84336 -0.97014,0 q -0.5457,0 -0.76067,0.22048 -0.20947,0.22049 -0.20947,0.79375 l 0,0.54571 1.67019,0 0,0.78823 -1.67019,0 0,5.38538 -1.01974,0 0,-5.38538 -0.97014,0 0,-0.78823 0.97014,0 0,-0.42995 q 0,-1.03077 0.47955,-1.49931 0.47956,-0.47404 1.52136,-0.47404 l 0.95911,0 z"
       style="fill:#00ff00;fill-opacity:1"
       id="path4207" />
    <path
       d="m 394.16485,291.02674 q -0.8158,0 -1.28985,0.63941 -0.47404,0.6339 -0.47404,1.74184 0,1.10795 0.46853,1.74736 0.47404,0.63389 1.29536,0.63389 0.81028,0 1.28433,-0.6394 0.47404,-0.63941 0.47404,-1.74185 0,-1.09691 -0.47404,-1.73632 -0.47405,-0.64493 -1.28433,-0.64493 z m 0,-0.85989 q 1.32291,0 2.07808,0.85989 0.75516,0.8599 0.75516,2.38125 0,1.51585 -0.75516,2.38125 -0.75517,0.8599 -2.07808,0.8599 -1.32843,0 -2.0836,-0.8599 -0.74965,-0.8654 -0.74965,-2.38125 0,-1.52135 0.74965,-2.38125 0.75517,-0.85989 2.0836,-0.85989 z"
       style="fill:#00ff00;fill-opacity:1"
       id="path4209" />
    <path
       d="m 403.8056,292.76307 0,3.72622 -1.01424,0 0,-3.69314 q 0,-0.87644 -0.34175,-1.3119 -0.34175,-0.43546 -1.02526,-0.43546 -0.82131,0 -1.29536,0.52366 -0.47404,0.52365 -0.47404,1.42765 l 0,3.48919 -1.01975,0 0,-6.17361 1.01975,0 0,0.95911 q 0.3638,-0.55673 0.85438,-0.83233 0.4961,-0.27561 1.14102,-0.27561 1.06384,0 1.60955,0.66146 0.5457,0.65594 0.5457,1.93476 z"
       style="fill:#00ff00;fill-opacity:1"
       id="path4211" />
    <path
       d="m 410.28238,290.5527 0,0.94809 q -0.42995,-0.23702 -0.86541,-0.35278 -0.42994,-0.12127 -0.87092,-0.12127 -0.98667,0 -1.53237,0.62839 -0.54571,0.62287 -0.54571,1.75286 0,1.13 0.54571,1.75838 0.5457,0.62287 1.53237,0.62287 0.44098,0 0.87092,-0.11575 0.43546,-0.12127 0.86541,-0.35829 l 0,0.93707 q -0.42443,0.19843 -0.88194,0.29765 -0.452,0.0992 -0.96463,0.0992 -1.39457,0 -2.21588,-0.87643 -0.82132,-0.87643 -0.82132,-2.36472 0,-1.51033 0.82683,-2.37573 0.83233,-0.86541 2.27652,-0.86541 0.46853,0 0.91501,0.0992 0.44649,0.0937 0.86541,0.28663 z"
       style="fill:#00ff00;fill-opacity:1"
       id="path4213" />
    <path
       d="m 413.0605,288.56281 0,1.75287 2.0891,0 0,0.78823 -2.0891,0 0,3.35139 q 0,0.75517 0.20395,0.97014 0.20946,0.21498 0.84336,0.21498 l 1.04179,0 0,0.84887 -1.04179,0 q -1.17409,0 -1.62058,-0.43546 -0.44648,-0.44097 -0.44648,-1.59853 l 0,-3.35139 -0.74414,0 0,-0.78823 0.74414,0 0,-1.75287 1.01975,0 z"
       style="fill:#00ff00;fill-opacity:1"
       id="path4215" />
    <path
       d="m 416.48906,290.31568 1.01424,0 0,6.17361 -1.01424,0 0,-6.17361 z m 0,-2.4033 1.01424,0 0,1.28433 -1.01424,0 0,-1.28433 z"
       style="fill:#00ff00;fill-opacity:1"
       id="path4217" />
    <path
       d="m 422.01224,291.02674 q -0.8158,0 -1.28984,0.63941 -0.47405,0.6339 -0.47405,1.74184 0,1.10795 0.46854,1.74736 0.47404,0.63389 1.29535,0.63389 0.81029,0 1.28433,-0.6394 0.47405,-0.63941 0.47405,-1.74185 0,-1.09691 -0.47405,-1.73632 -0.47404,-0.64493 -1.28433,-0.64493 z m 0,-0.85989 q 1.32292,0 2.07808,0.85989 0.75517,0.8599 0.75517,2.38125 0,1.51585 -0.75517,2.38125 -0.75516,0.8599 -2.07808,0.8599 -1.32843,0 -2.08359,-0.8599 -0.74965,-0.8654 -0.74965,-2.38125 0,-1.52135 0.74965,-2.38125 0.75516,-0.85989 2.08359,-0.85989 z"
       style="fill:#00ff00;fill-opacity:1"
       id="path4219" />
    <path
       d="m 431.653,292.76307 0,3.72622 -1.01424,0 0,-3.69314 q 0,-0.87644 -0.34175,-1.3119 -0.34176,-0.43546 -1.02526,-0.43546 -0.82131,0 -1.29536,0.52366 -0.47404,0.52365 -0.47404,1.42765 l 0,3.48919 -1.01975,0 0,-6.17361 1.01975,0 0,0.95911 q 0.3638,-0.55673 0.85438,-0.83233 0.49609,-0.27561 1.14101,-0.27561 1.06385,0 1.60955,0.66146 0.54571,0.65594 0.54571,1.93476 z"
       style="fill:#00ff00;fill-opacity:1"
       id="path4221" />
    <path
       d="m 205.93032,305.36386 0,-3.34037 1.01423,0 0,8.57691 -1.01423,0 0,-0.92604 q -0.31971,0.55121 -0.81029,0.82131 -0.48507,0.26458 -1.16857,0.26458 -1.11897,0 -1.82453,-0.89297 -0.70004,-0.89296 -0.70004,-2.34817 0,-1.45521 0.70004,-2.34818 0.70556,-0.89297 1.82453,-0.89297 0.6835,0 1.16857,0.2701 0.49058,0.26458 0.81029,0.8158 z m -3.45612,2.15525 q 0,1.11896 0.45751,1.75837 0.46302,0.6339 1.26779,0.6339 0.80478,0 1.2678,-0.6339 0.46302,-0.63941 0.46302,-1.75837 0,-1.11897 -0.46302,-1.75287 -0.46302,-0.63941 -1.2678,-0.63941 -0.80477,0 -1.26779,0.63941 -0.45751,0.6339 -0.45751,1.75287 z"
       style="fill:#00ff00;fill-opacity:1"
       id="path4223" />
    <path
       d="m 214.3143,307.26004 0,0.49609 -4.66328,0 q 0.0662,1.04731 0.62839,1.59852 0.56775,0.54571 1.57647,0.54571 0.58429,0 1.12999,-0.14332 0.55122,-0.14331 1.09141,-0.42995 l 0,0.95912 q -0.5457,0.23151 -1.11897,0.35278 -0.57326,0.12126 -1.16306,0.12126 -1.47726,0 -2.34267,-0.85989 -0.85989,-0.8599 -0.85989,-2.32613 0,-1.51584 0.8158,-2.4033 0.82131,-0.89297 2.21037,-0.89297 1.24575,0 1.96784,0.80478 0.7276,0.79926 0.7276,2.1773 z m -1.01423,-0.29766 q -0.011,-0.83234 -0.46854,-1.32843 -0.45199,-0.49609 -1.20164,-0.49609 -0.84888,0 -1.36151,0.47955 -0.50711,0.47956 -0.58429,1.35048 l 3.61598,-0.006 z"
       style="fill:#00ff00;fill-opacity:1"
       id="path4225" />
    <path
       d="m 219.5729,302.02349 1.01423,0 0,8.57691 -1.01423,0 0,-8.57691 z"
       style="fill:#00ff00;fill-opacity:1"
       id="path4227" />
    <path
       d="m 223.66292,302.37076 0,3.05924 -0.93707,0 0,-3.05924 0.93707,0 z"
       style="fill:#00ff00;fill-opacity:1"
       id="path4229" />
    <path
       d="m 231.0933,307.26004 0,0.49609 -4.66328,0 q 0.0661,1.04731 0.62838,1.59852 0.56775,0.54571 1.57648,0.54571 0.58429,0 1.12999,-0.14332 0.55121,-0.14331 1.09141,-0.42995 l 0,0.95912 q -0.54571,0.23151 -1.11897,0.35278 -0.57327,0.12126 -1.16307,0.12126 -1.47725,0 -2.34266,-0.85989 -0.8599,-0.8599 -0.8599,-2.32613 0,-1.51584 0.8158,-2.4033 0.82131,-0.89297 2.21038,-0.89297 1.24574,0 1.96783,0.80478 0.72761,0.79926 0.72761,2.1773 z m -1.01424,-0.29766 q -0.011,-0.83234 -0.46853,-1.32843 -0.452,-0.49609 -1.20165,-0.49609 -0.84887,0 -1.3615,0.47955 -0.50712,0.47956 -0.58429,1.35048 l 3.61597,-0.006 z m -0.97565,-5.39089 1.09692,0 -1.79696,2.07257 -0.84336,0 1.5434,-2.07257 z"
       style="fill:#00ff00;fill-opacity:1"
       id="path4231" />
    <path
       d="m 237.20076,304.66381 0,0.94809 q -0.42994,-0.23702 -0.8654,-0.35278 -0.42995,-0.12126 -0.87092,-0.12126 -0.98668,0 -1.53238,0.62838 -0.54571,0.62288 -0.54571,1.75287 0,1.12999 0.54571,1.75837 0.5457,0.62288 1.53238,0.62288 0.44097,0 0.87092,-0.11576 0.43546,-0.12127 0.8654,-0.35829 l 0,0.93707 q -0.42443,0.19844 -0.88194,0.29765 -0.452,0.0992 -0.96463,0.0992 -1.39457,0 -2.21588,-0.87643 -0.82131,-0.87643 -0.82131,-2.36471 0,-1.51033 0.82682,-2.37574 0.83233,-0.86541 2.27652,-0.86541 0.46853,0 0.91502,0.0992 0.44648,0.0937 0.8654,0.28663 z"
       style="fill:#00ff00;fill-opacity:1"
       id="path4233" />
    <path
       d="m 242.55306,305.37488 q -0.17087,-0.0992 -0.37482,-0.14332 -0.19844,-0.0496 -0.44097,-0.0496 -0.8599,0 -1.32292,0.56224 -0.45751,0.55673 -0.45751,1.60404 l 0,3.25217 -1.01975,0 0,-6.17361 1.01975,0 0,0.95911 q 0.3197,-0.56224 0.83233,-0.83233 0.51264,-0.27561 1.24575,-0.27561 0.10473,0 0.23151,0.0165 0.12678,0.011 0.28112,0.0386 l 0.006,1.0418 z"
       style="fill:#00ff00;fill-opacity:1"
       id="path4235" />
    <path
       d="m 246.43362,307.49706 q -1.22921,0 -1.70325,0.28112 -0.47405,0.28112 -0.47405,0.95911 0,0.54019 0.35278,0.8599 0.35829,0.31419 0.97014,0.31419 0.84336,0 1.35048,-0.59531 0.51263,-0.60083 0.51263,-1.59301 l 0,-0.226 -1.00873,0 z m 2.02296,-0.41893 0,3.52227 -1.01423,0 0,-0.93707 q -0.34727,0.56224 -0.86541,0.83234 -0.51814,0.26458 -1.2678,0.26458 -0.94809,0 -1.51033,-0.52916 -0.55672,-0.53468 -0.55672,-1.42765 0,-1.0418 0.69453,-1.57096 0.70004,-0.52917 2.08359,-0.52917 l 1.42214,0 0,-0.0992 q 0,-0.70004 -0.46302,-1.08038 -0.45751,-0.38585 -1.28985,-0.38585 -0.52917,0 -1.03077,0.12678 -0.50161,0.12678 -0.96463,0.38033 l 0,-0.93706 q 0.55673,-0.21498 1.08038,-0.31971 0.52366,-0.11024 1.01975,-0.11024 1.33946,0 2.00091,0.69453 0.66146,0.69453 0.66146,2.10564 z"
       style="fill:#00ff00;fill-opacity:1"
       id="path4237" />
    <path
       d="m 255.68301,306.87419 0,3.72621 -1.01423,0 0,-3.69314 q 0,-0.87643 -0.34176,-1.31189 -0.34175,-0.43546 -1.02526,-0.43546 -0.82131,0 -1.29535,0.52365 -0.47405,0.52365 -0.47405,1.42765 l 0,3.48919 -1.01975,0 0,-6.17361 1.01975,0 0,0.95911 q 0.36381,-0.55672 0.85439,-0.83233 0.49609,-0.27561 1.14101,-0.27561 1.06385,0 1.60955,0.66146 0.5457,0.65595 0.5457,1.93477 z"
       style="fill:#00ff00;fill-opacity:1"
       id="path4239" />
    <path
       d="m 261.91726,307.51911 q 0,1.11896 0.45751,1.75837 0.46302,0.6339 1.26779,0.6339 0.80478,0 1.2678,-0.6339 0.46302,-0.63941 0.46302,-1.75837 0,-1.11897 -0.46302,-1.75287 -0.46302,-0.63941 -1.2678,-0.63941 -0.80477,0 -1.26779,0.63941 -0.45751,0.6339 -0.45751,1.75287 z m 3.45612,2.15525 q -0.3197,0.55121 -0.81029,0.82131 -0.48507,0.26458 -1.16857,0.26458 -1.11897,0 -1.82453,-0.89297 -0.70004,-0.89296 -0.70004,-2.34817 0,-1.45521 0.70004,-2.34818 0.70556,-0.89297 1.82453,-0.89297 0.6835,0 1.16857,0.2701 0.49059,0.26458 0.81029,0.8158 l 0,-0.93707 1.01424,0 0,8.52179 -1.01424,0 0,-3.27422 z"
       style="fill:#00ff00;fill-opacity:1"
       id="path4241" />
    <path
       d="m 268.37199,308.16403 0,-3.73724 1.01423,0 0,3.69865 q 0,0.87644 0.34176,1.31741 0.34175,0.43546 1.02526,0.43546 0.82131,0 1.29535,-0.52366 0.47956,-0.52365 0.47956,-1.42764 l 0,-3.50022 1.01424,0 0,6.17361 -1.01424,0 0,-0.94809 q -0.36931,0.56224 -0.8599,0.83785 -0.48506,0.27009 -1.12999,0.27009 -1.06384,0 -1.61506,-0.66146 -0.55121,-0.66145 -0.55121,-1.93476 z m 2.55212,-3.88607 0,0 z"
       style="fill:#00ff00;fill-opacity:1"
       id="path4243" />
    <path
       d="m 275.64252,304.42679 1.01424,0 0,6.17361 -1.01424,0 0,-6.17361 z m 0,-2.4033 1.01424,0 0,1.28433 -1.01424,0 0,-1.28433 z"
       style="fill:#00ff00;fill-opacity:1"
       id="path4245" />
    <path
       d="m 286.30303,304.60869 0,0.95911 q -0.42995,-0.22048 -0.89297,-0.33072 -0.46302,-0.11025 -0.95912,-0.11025 -0.75516,0 -1.1355,0.23151 -0.37483,0.23151 -0.37483,0.69453 0,0.35278 0.2701,0.55673 0.2701,0.19844 1.08589,0.38034 l 0.34727,0.0772 q 1.08038,0.23151 1.53238,0.65595 0.45751,0.41892 0.45751,1.17409 0,0.85989 -0.68351,1.3615 -0.67799,0.5016 -1.86862,0.5016 -0.49609,0 -1.03628,-0.0992 -0.53468,-0.0937 -1.13,-0.28663 l 0,-1.04731 q 0.56224,0.29215 1.10795,0.44098 0.5457,0.14331 1.08038,0.14331 0.71658,0 1.10243,-0.24253 0.38585,-0.24805 0.38585,-0.69453 0,-0.41342 -0.28112,-0.6339 -0.27561,-0.22049 -1.21819,-0.42444 l -0.35277,-0.0827 q -0.94258,-0.19844 -1.36151,-0.60634 -0.41892,-0.41341 -0.41892,-1.12999 0,-0.87092 0.61736,-1.34496 0.61736,-0.47405 1.75287,-0.47405 0.56224,0 1.05833,0.0827 0.49609,0.0827 0.91502,0.24805 z"
       style="fill:#00ff00;fill-opacity:1"
       id="path4247" />
    <path
       d="m 293.53497,307.26004 0,0.49609 -4.66328,0 q 0.0661,1.04731 0.62839,1.59852 0.56775,0.54571 1.57647,0.54571 0.58429,0 1.12999,-0.14332 0.55122,-0.14331 1.09141,-0.42995 l 0,0.95912 q -0.5457,0.23151 -1.11897,0.35278 -0.57326,0.12126 -1.16306,0.12126 -1.47726,0 -2.34267,-0.85989 -0.85989,-0.8599 -0.85989,-2.32613 0,-1.51584 0.8158,-2.4033 0.82131,-0.89297 2.21037,-0.89297 1.24575,0 1.96784,0.80478 0.7276,0.79926 0.7276,2.1773 z m -1.01423,-0.29766 q -0.011,-0.83234 -0.46854,-1.32843 -0.45199,-0.49609 -1.20165,-0.49609 -0.84887,0 -1.3615,0.47955 -0.50712,0.47956 -0.58429,1.35048 l 3.61598,-0.006 z"
       style="fill:#00ff00;fill-opacity:1"
       id="path4249" />
    <path
       d="m 298.77703,305.37488 q -0.17088,-0.0992 -0.37483,-0.14332 -0.19844,-0.0496 -0.44097,-0.0496 -0.8599,0 -1.32292,0.56224 -0.45751,0.55673 -0.45751,1.60404 l 0,3.25217 -1.01974,0 0,-6.17361 1.01974,0 0,0.95911 q 0.31971,-0.56224 0.83234,-0.83233 0.51263,-0.27561 1.24575,-0.27561 0.10473,0 0.23151,0.0165 0.12678,0.011 0.28112,0.0386 l 0.006,1.0418 z"
       style="fill:#00ff00;fill-opacity:1"
       id="path4251" />
    <path
       d="m 302.65759,307.49706 q -1.22921,0 -1.70326,0.28112 -0.47404,0.28112 -0.47404,0.95911 0,0.54019 0.35277,0.8599 0.35829,0.31419 0.97014,0.31419 0.84336,0 1.35048,-0.59531 0.51263,-0.60083 0.51263,-1.59301 l 0,-0.226 -1.00872,0 z m 2.02296,-0.41893 0,3.52227 -1.01424,0 0,-0.93707 q -0.34726,0.56224 -0.86541,0.83234 -0.51814,0.26458 -1.26779,0.26458 -0.94809,0 -1.51033,-0.52916 -0.55673,-0.53468 -0.55673,-1.42765 0,-1.0418 0.69453,-1.57096 0.70005,-0.52917 2.0836,-0.52917 l 1.42213,0 0,-0.0992 q 0,-0.70004 -0.46302,-1.08038 -0.45751,-0.38585 -1.28984,-0.38585 -0.52917,0 -1.03078,0.12678 -0.5016,0.12678 -0.96462,0.38033 l 0,-0.93706 q 0.55672,-0.21498 1.08038,-0.31971 0.52365,-0.11024 1.01975,-0.11024 1.33945,0 2.00091,0.69453 0.66146,0.69453 0.66146,2.10564 z"
       style="fill:#00ff00;fill-opacity:1"
       id="path4253" />
    <path
       d="m 310.26436,308.16403 0,-3.73724 1.01424,0 0,3.69865 q 0,0.87644 0.34175,1.31741 0.34175,0.43546 1.02526,0.43546 0.82131,0 1.29536,-0.52366 0.47955,-0.52365 0.47955,-1.42764 l 0,-3.50022 1.01424,0 0,6.17361 -1.01424,0 0,-0.94809 q -0.36931,0.56224 -0.85989,0.83785 -0.48507,0.27009 -1.12999,0.27009 -1.06385,0 -1.61507,-0.66146 -0.55121,-0.66145 -0.55121,-1.93476 z m 2.55213,-3.88607 0,0 z"
       style="fill:#00ff00;fill-opacity:1"
       id="path4255" />
    <path
       d="m 318.5381,302.67392 0,1.75287 2.0891,0 0,0.78824 -2.0891,0 0,3.35139 q 0,0.75516 0.20395,0.97014 0.20946,0.21497 0.84336,0.21497 l 1.04179,0 0,0.84887 -1.04179,0 q -1.17409,0 -1.62058,-0.43546 -0.44648,-0.44097 -0.44648,-1.59852 l 0,-3.35139 -0.74414,0 0,-0.78824 0.74414,0 0,-1.75287 1.01975,0 z"
       style="fill:#00ff00;fill-opacity:1"
       id="path4257" />
    <path
       d="m 321.96665,304.42679 1.01424,0 0,6.17361 -1.01424,0 0,-6.17361 z m 0,-2.4033 1.01424,0 0,1.28433 -1.01424,0 0,-1.28433 z"
       style="fill:#00ff00;fill-opacity:1"
       id="path4259" />
    <path
       d="m 325.09756,302.02349 1.01424,0 0,8.57691 -1.01424,0 0,-8.57691 z"
       style="fill:#00ff00;fill-opacity:1"
       id="path4261" />
    <path
       d="m 328.22847,304.42679 1.01423,0 0,6.17361 -1.01423,0 0,-6.17361 z m 0,-2.4033 1.01423,0 0,1.28433 -1.01423,0 0,-1.28433 z"
       style="fill:#00ff00;fill-opacity:1"
       id="path4263" />
    <path
       d="m 335.29504,304.60869 0,0.95911 q -0.42995,-0.22048 -0.89297,-0.33072 -0.46302,-0.11025 -0.95911,-0.11025 -0.75517,0 -1.13551,0.23151 -0.37482,0.23151 -0.37482,0.69453 0,0.35278 0.27009,0.55673 0.2701,0.19844 1.0859,0.38034 l 0.34726,0.0772 q 1.08038,0.23151 1.53238,0.65595 0.45751,0.41892 0.45751,1.17409 0,0.85989 -0.68351,1.3615 -0.67799,0.5016 -1.86862,0.5016 -0.49609,0 -1.03628,-0.0992 -0.53468,-0.0937 -1.12999,-0.28663 l 0,-1.04731 q 0.56224,0.29215 1.10794,0.44098 0.5457,0.14331 1.08038,0.14331 0.71658,0 1.10243,-0.24253 0.38585,-0.24805 0.38585,-0.69453 0,-0.41342 -0.28112,-0.6339 -0.27561,-0.22049 -1.21818,-0.42444 l -0.35278,-0.0827 q -0.94258,-0.19844 -1.3615,-0.60634 -0.41893,-0.41341 -0.41893,-1.12999 0,-0.87092 0.61736,-1.34496 0.61737,-0.47405 1.75287,-0.47405 0.56224,0 1.05833,0.0827 0.4961,0.0827 0.91502,0.24805 z"
       style="fill:#00ff00;fill-opacity:1"
       id="path4265" />
    <path
       d="m 342.52698,307.26004 0,0.49609 -4.66328,0 q 0.0661,1.04731 0.62839,1.59852 0.56775,0.54571 1.57647,0.54571 0.58429,0 1.12999,-0.14332 0.55122,-0.14331 1.09141,-0.42995 l 0,0.95912 q -0.5457,0.23151 -1.11897,0.35278 -0.57326,0.12126 -1.16306,0.12126 -1.47726,0 -2.34267,-0.85989 -0.85989,-0.8599 -0.85989,-2.32613 0,-1.51584 0.8158,-2.4033 0.82131,-0.89297 2.21037,-0.89297 1.24575,0 1.96784,0.80478 0.7276,0.79926 0.7276,2.1773 z m -1.01423,-0.29766 q -0.011,-0.83234 -0.46854,-1.32843 -0.45199,-0.49609 -1.20165,-0.49609 -0.84887,0 -1.3615,0.47955 -0.50712,0.47956 -0.58429,1.35048 l 3.61598,-0.006 z m -0.97565,-5.39089 1.09691,0 -1.79696,2.07257 -0.84336,0 1.54341,-2.07257 z"
       style="fill:#00ff00;fill-opacity:1"
       id="path4267" />
  </g>
  <g
     id="g4269"
     style="font-style:normal;font-weight:normal;font-size:11.28888988px;line-height:125%;font-family:sans-serif;letter-spacing:0px;word-spacing:0px;fill:#00ff00;fill-opacity:1;stroke:none;stroke-width:1px;stroke-linecap:butt;stroke-linejoin:miter;stroke-opacity:1"
     transform="translate(0,203.19993)">
    <path
       id="path4271"
       style="fill:#00ff00;fill-opacity:1"
       d="m 208.07455,288.89354 0,1.17409 q -0.56224,-0.52365 -1.20165,-0.78273 -0.6339,-0.25907 -1.35048,-0.25907 -1.41111,0 -2.16076,0.86541 -0.74966,0.8599 -0.74966,2.49149 0,1.62609 0.74966,2.4915 0.74965,0.85989 2.16076,0.85989 0.71658,0 1.35048,-0.25907 0.63941,-0.25907 1.20165,-0.78272 l 0,1.16306 q -0.58429,0.39688 -1.24024,0.59531 -0.65043,0.19844 -1.37804,0.19844 -1.86862,0 -2.94349,-1.14101 -1.07487,-1.14653 -1.07487,-3.1254 0,-1.98437 1.07487,-3.12539 1.07487,-1.14652 2.94349,-1.14652 0.73863,0 1.38907,0.19843 0.65594,0.19293 1.22921,0.58429 z"
       inkscape:connector-curvature="0" />
    <path
       id="path4273"
       style="fill:#00ff00;fill-opacity:1"
       d="m 215.04191,293.14892 0,0.4961 -4.66328,0 q 0.0661,1.04731 0.62838,1.59852 0.56775,0.5457 1.57648,0.5457 0.58429,0 1.12999,-0.14331 0.55121,-0.14332 1.09141,-0.42995 l 0,0.95912 q -0.54571,0.23151 -1.11897,0.35277 -0.57327,0.12127 -1.16307,0.12127 -1.47725,0 -2.34266,-0.8599 -0.8599,-0.85989 -0.8599,-2.32612 0,-1.51585 0.8158,-2.4033 0.82131,-0.89297 2.21038,-0.89297 1.24574,0 1.96783,0.80477 0.72761,0.79927 0.72761,2.1773 z m -1.01424,-0.29765 q -0.011,-0.83234 -0.46853,-1.32843 -0.452,-0.4961 -1.20165,-0.4961 -0.84887,0 -1.3615,0.47956 -0.50712,0.47956 -0.58429,1.35048 l 3.61597,-0.006 z"
       inkscape:connector-curvature="0" />
    <path
       id="path4275"
       style="fill:#00ff00;fill-opacity:1"
       d="m 217.70979,288.56281 0,1.75287 2.08911,0 0,0.78823 -2.08911,0 0,3.35139 q 0,0.75517 0.20395,0.97014 0.20946,0.21498 0.84336,0.21498 l 1.0418,0 0,0.84887 -1.0418,0 q -1.17409,0 -1.62057,-0.43546 -0.44649,-0.44097 -0.44649,-1.59853 l 0,-3.35139 -0.74414,0 0,-0.78823 0.74414,0 0,-1.75287 1.01975,0 z"
       inkscape:connector-curvature="0" />
    <path
       id="path4277"
       style="fill:#00ff00;fill-opacity:1"
       d="m 222.14156,288.56281 0,1.75287 2.08911,0 0,0.78823 -2.08911,0 0,3.35139 q 0,0.75517 0.20395,0.97014 0.20946,0.21498 0.84336,0.21498 l 1.0418,0 0,0.84887 -1.0418,0 q -1.17409,0 -1.62057,-0.43546 -0.44649,-0.44097 -0.44649,-1.59853 l 0,-3.35139 -0.74414,0 0,-0.78823 0.74414,0 0,-1.75287 1.01975,0 z"
       inkscape:connector-curvature="0" />
    <path
       id="path4279"
       style="fill:#00ff00;fill-opacity:1"
       d="m 230.85076,293.14892 0,0.4961 -4.66328,0 q 0.0661,1.04731 0.62839,1.59852 0.56775,0.5457 1.57647,0.5457 0.58429,0 1.12999,-0.14331 0.55122,-0.14332 1.09141,-0.42995 l 0,0.95912 q -0.5457,0.23151 -1.11897,0.35277 -0.57326,0.12127 -1.16306,0.12127 -1.47726,0 -2.34267,-0.8599 -0.85989,-0.85989 -0.85989,-2.32612 0,-1.51585 0.8158,-2.4033 0.82131,-0.89297 2.21037,-0.89297 1.24575,0 1.96784,0.80477 0.7276,0.79927 0.7276,2.1773 z m -1.01423,-0.29765 q -0.011,-0.83234 -0.46854,-1.32843 -0.45199,-0.4961 -1.20165,-0.4961 -0.84887,0 -1.3615,0.47956 -0.50712,0.47956 -0.58429,1.35048 l 3.61598,-0.006 z"
       inkscape:connector-curvature="0" />
    <path
       id="path4281"
       style="fill:#00ff00;fill-opacity:1"
       d="m 240.17182,291.25274 0,-3.34036 1.01423,0 0,8.57691 -1.01423,0 0,-0.92604 q -0.31971,0.55121 -0.81029,0.82131 -0.48507,0.26458 -1.16858,0.26458 -1.11896,0 -1.82452,-0.89297 -0.70004,-0.89297 -0.70004,-2.34818 0,-1.4552 0.70004,-2.34817 0.70556,-0.89297 1.82452,-0.89297 0.68351,0 1.16858,0.27009 0.49058,0.26459 0.81029,0.8158 z m -3.45612,2.15525 q 0,1.11897 0.4575,1.75838 0.46303,0.6339 1.2678,0.6339 0.80477,0 1.26779,-0.6339 0.46303,-0.63941 0.46303,-1.75838 0,-1.11896 -0.46303,-1.75286 -0.46302,-0.63941 -1.26779,-0.63941 -0.80477,0 -1.2678,0.63941 -0.4575,0.6339 -0.4575,1.75286 z"
       inkscape:connector-curvature="0" />
    <path
       id="path4283"
       style="fill:#00ff00;fill-opacity:1"
       d="m 248.5558,293.14892 0,0.4961 -4.66328,0 q 0.0661,1.04731 0.62838,1.59852 0.56776,0.5457 1.57648,0.5457 0.58429,0 1.12999,-0.14331 0.55122,-0.14332 1.09141,-0.42995 l 0,0.95912 q -0.54571,0.23151 -1.11897,0.35277 -0.57326,0.12127 -1.16306,0.12127 -1.47726,0 -2.34267,-0.8599 -0.8599,-0.85989 -0.8599,-2.32612 0,-1.51585 0.8158,-2.4033 0.82131,-0.89297 2.21038,-0.89297 1.24574,0 1.96784,0.80477 0.7276,0.79927 0.7276,2.1773 z m -1.01424,-0.29765 q -0.011,-0.83234 -0.46853,-1.32843 -0.452,-0.4961 -1.20165,-0.4961 -0.84887,0 -1.3615,0.47956 -0.50712,0.47956 -0.58429,1.35048 l 3.61597,-0.006 z m -0.97565,-5.39089 1.09692,0 -1.79696,2.07257 -0.84336,0 1.5434,-2.07257 z"
       inkscape:connector-curvature="0" />
    <path
       id="path4285"
       style="fill:#00ff00;fill-opacity:1"
       d="m 254.66326,290.5527 0,0.94809 q -0.42994,-0.23702 -0.8654,-0.35278 -0.42995,-0.12127 -0.87092,-0.12127 -0.98668,0 -1.53238,0.62839 -0.54571,0.62287 -0.54571,1.75286 0,1.13 0.54571,1.75838 0.5457,0.62287 1.53238,0.62287 0.44097,0 0.87092,-0.11575 0.43546,-0.12127 0.8654,-0.35829 l 0,0.93707 q -0.42443,0.19843 -0.88194,0.29765 -0.452,0.0992 -0.96463,0.0992 -1.39457,0 -2.21588,-0.87643 -0.82131,-0.87643 -0.82131,-2.36472 0,-1.51033 0.82682,-2.37573 0.83234,-0.86541 2.27652,-0.86541 0.46853,0 0.91502,0.0992 0.44648,0.0937 0.8654,0.28663 z"
       inkscape:connector-curvature="0" />
    <path
       id="path4287"
       style="fill:#00ff00;fill-opacity:1"
       d="m 258.83045,291.02674 q -0.8158,0 -1.28984,0.63941 -0.47405,0.6339 -0.47405,1.74184 0,1.10795 0.46854,1.74736 0.47404,0.63389 1.29535,0.63389 0.81029,0 1.28433,-0.6394 0.47405,-0.63941 0.47405,-1.74185 0,-1.09691 -0.47405,-1.73632 -0.47404,-0.64493 -1.28433,-0.64493 z m 0,-0.85989 q 1.32292,0 2.07808,0.85989 0.75517,0.8599 0.75517,2.38125 0,1.51585 -0.75517,2.38125 -0.75516,0.8599 -2.07808,0.8599 -1.32843,0 -2.08359,-0.8599 -0.74965,-0.8654 -0.74965,-2.38125 0,-1.52135 0.74965,-2.38125 0.75516,-0.85989 2.08359,-0.85989 z"
       inkscape:connector-curvature="0" />
    <path
       id="path4289"
       style="fill:#00ff00;fill-opacity:1"
       d="m 263.23467,294.05292 0,-3.73724 1.01423,0 0,3.69865 q 0,0.87643 0.34176,1.31741 0.34175,0.43546 1.02526,0.43546 0.82131,0 1.29535,-0.52366 0.47956,-0.52365 0.47956,-1.42765 l 0,-3.50021 1.01424,0 0,6.17361 -1.01424,0 0,-0.94809 q -0.36932,0.56224 -0.8599,0.83785 -0.48507,0.27009 -1.12999,0.27009 -1.06384,0 -1.61506,-0.66146 -0.55121,-0.66146 -0.55121,-1.93476 z m 2.55212,-3.88607 0,0 z"
       inkscape:connector-curvature="0" />
    <path
       id="path4291"
       style="fill:#00ff00;fill-opacity:1"
       d="m 271.48635,295.56325 0,3.27422 -1.01974,0 0,-8.52179 1.01974,0 0,0.93706 q 0.31971,-0.55121 0.80478,-0.8158 0.49058,-0.27009 1.16857,-0.27009 1.12448,0 1.82453,0.89297 0.70555,0.89297 0.70555,2.34817 0,1.45521 -0.70555,2.34818 -0.70005,0.89297 -1.82453,0.89297 -0.67799,0 -1.16857,-0.26458 -0.48507,-0.2701 -0.80478,-0.82131 z m 3.45061,-2.15526 q 0,-1.11896 -0.46302,-1.75286 -0.45751,-0.63941 -1.26228,-0.63941 -0.80478,0 -1.2678,0.63941 -0.45751,0.6339 -0.45751,1.75286 0,1.11897 0.45751,1.75838 0.46302,0.6339 1.2678,0.6339 0.80477,0 1.26228,-0.6339 0.46302,-0.63941 0.46302,-1.75838 z"
       inkscape:connector-curvature="0" />
    <path
       id="path4293"
       style="fill:#00ff00;fill-opacity:1"
       d="m 282.95164,293.14892 0,0.4961 -4.66329,0 q 0.0661,1.04731 0.62839,1.59852 0.56775,0.5457 1.57648,0.5457 0.58428,0 1.12999,-0.14331 0.55121,-0.14332 1.0914,-0.42995 l 0,0.95912 q -0.5457,0.23151 -1.11896,0.35277 -0.57327,0.12127 -1.16307,0.12127 -1.47726,0 -2.34266,-0.8599 -0.8599,-0.85989 -0.8599,-2.32612 0,-1.51585 0.8158,-2.4033 0.82131,-0.89297 2.21037,-0.89297 1.24575,0 1.96784,0.80477 0.72761,0.79927 0.72761,2.1773 z m -1.01424,-0.29765 q -0.011,-0.83234 -0.46853,-1.32843 -0.452,-0.4961 -1.20165,-0.4961 -0.84887,0 -1.3615,0.47956 -0.50712,0.47956 -0.58429,1.35048 l 3.61597,-0.006 z"
       inkscape:connector-curvature="0" />
    <path
       id="path4295"
       style="fill:#00ff00;fill-opacity:1"
       d="m 293.49087,293.14892 0,0.4961 -4.66328,0 q 0.0661,1.04731 0.62839,1.59852 0.56775,0.5457 1.57647,0.5457 0.58429,0 1.12999,-0.14331 0.55122,-0.14332 1.09141,-0.42995 l 0,0.95912 q -0.5457,0.23151 -1.11897,0.35277 -0.57326,0.12127 -1.16306,0.12127 -1.47726,0 -2.34267,-0.8599 -0.85989,-0.85989 -0.85989,-2.32612 0,-1.51585 0.8158,-2.4033 0.82131,-0.89297 2.21037,-0.89297 1.24575,0 1.96784,0.80477 0.7276,0.79927 0.7276,2.1773 z m -1.01423,-0.29765 q -0.011,-0.83234 -0.46854,-1.32843 -0.45199,-0.4961 -1.20165,-0.4961 -0.84887,0 -1.3615,0.47956 -0.50711,0.47956 -0.58429,1.35048 l 3.61598,-0.006 z"
       inkscape:connector-curvature="0" />
    <path
       id="path4297"
       style="fill:#00ff00;fill-opacity:1"
       d="m 299.09122,290.49758 0,0.95911 q -0.42995,-0.22048 -0.89297,-0.33073 -0.46302,-0.11024 -0.95911,-0.11024 -0.75517,0 -1.13551,0.23151 -0.37482,0.23151 -0.37482,0.69453 0,0.35278 0.27009,0.55673 0.2701,0.19844 1.0859,0.38034 l 0.34726,0.0772 q 1.08038,0.23151 1.53238,0.65594 0.45751,0.41893 0.45751,1.17409 0,0.8599 -0.68351,1.3615 -0.67799,0.50161 -1.86862,0.50161 -0.49609,0 -1.03628,-0.0992 -0.53468,-0.0937 -1.12999,-0.28663 l 0,-1.04731 q 0.56224,0.29215 1.10794,0.44097 0.5457,0.14332 1.08038,0.14332 0.71658,0 1.10243,-0.24254 0.38585,-0.24804 0.38585,-0.69453 0,-0.41341 -0.28112,-0.63389 -0.2756,-0.22049 -1.21818,-0.42444 l -0.35278,-0.0827 q -0.94258,-0.19844 -1.3615,-0.60634 -0.41893,-0.41341 -0.41893,-1.12999 0,-0.87092 0.61737,-1.34497 0.61736,-0.47404 1.75286,-0.47404 0.56224,0 1.05833,0.0827 0.4961,0.0827 0.91502,0.24805 z"
       inkscape:connector-curvature="0" />
    <path
       id="path4299"
       style="fill:#00ff00;fill-opacity:1"
       d="m 302.04573,288.56281 0,1.75287 2.08911,0 0,0.78823 -2.08911,0 0,3.35139 q 0,0.75517 0.20395,0.97014 0.20946,0.21498 0.84336,0.21498 l 1.0418,0 0,0.84887 -1.0418,0 q -1.17409,0 -1.62057,-0.43546 -0.44649,-0.44097 -0.44649,-1.59853 l 0,-3.35139 -0.74414,0 0,-0.78823 0.74414,0 0,-1.75287 1.01975,0 z"
       inkscape:connector-curvature="0" />
    <path
       id="path4301"
       style="fill:#00ff00;fill-opacity:1"
       d="m 311.8739,293.38595 q -1.22921,0 -1.70325,0.28112 -0.47405,0.28112 -0.47405,0.95911 0,0.54019 0.35278,0.8599 0.35829,0.31419 0.97014,0.31419 0.84336,0 1.35048,-0.59531 0.51263,-0.60083 0.51263,-1.59302 l 0,-0.22599 -1.00873,0 z m 2.02296,-0.41893 0,3.52227 -1.01423,0 0,-0.93707 q -0.34727,0.56224 -0.86541,0.83234 -0.51814,0.26458 -1.2678,0.26458 -0.94809,0 -1.51033,-0.52917 -0.55672,-0.53467 -0.55672,-1.42764 0,-1.0418 0.69453,-1.57097 0.70004,-0.52916 2.08359,-0.52916 l 1.42214,0 0,-0.0992 q 0,-0.70005 -0.46302,-1.08038 -0.45751,-0.38586 -1.28985,-0.38586 -0.52916,0 -1.03077,0.12678 -0.50161,0.12678 -0.96463,0.38034 l 0,-0.93706 q 0.55673,-0.21498 1.08039,-0.31971 0.52365,-0.11024 1.01974,-0.11024 1.33946,0 2.00092,0.69453 0.66145,0.69453 0.66145,2.10564 z"
       inkscape:connector-curvature="0" />
    <path
       id="path4303"
       style="fill:#00ff00;fill-opacity:1"
       d="m 324.392,291.50079 q 0.38034,-0.68351 0.90951,-1.00872 0.52917,-0.32522 1.24575,-0.32522 0.96462,0 1.48828,0.67799 0.52365,0.67249 0.52365,1.91823 l 0,3.72622 -1.01975,0 0,-3.69314 q 0,-0.88746 -0.31419,-1.31741 -0.31419,-0.42995 -0.95911,-0.42995 -0.78824,0 -1.24575,0.52366 -0.45751,0.52365 -0.45751,1.42765 l 0,3.48919 -1.01975,0 0,-3.69314 q 0,-0.89297 -0.31419,-1.31741 -0.31419,-0.42995 -0.97014,-0.42995 -0.77721,0 -1.23472,0.52917 -0.45751,0.52365 -0.45751,1.42214 l 0,3.48919 -1.01975,0 0,-6.17361 1.01975,0 0,0.95911 q 0.34727,-0.56775 0.83233,-0.83785 0.48507,-0.27009 1.15204,-0.27009 0.67249,0 1.14102,0.34175 0.47405,0.34176 0.70004,0.99219 z"
       inkscape:connector-curvature="0" />
    <path
       id="path4305"
       style="fill:#00ff00;fill-opacity:1"
       d="m 332.97994,291.02674 q -0.8158,0 -1.28984,0.63941 -0.47405,0.6339 -0.47405,1.74184 0,1.10795 0.46853,1.74736 0.47405,0.63389 1.29536,0.63389 0.81029,0 1.28433,-0.6394 0.47405,-0.63941 0.47405,-1.74185 0,-1.09691 -0.47405,-1.73632 -0.47404,-0.64493 -1.28433,-0.64493 z m 0,-0.85989 q 1.32292,0 2.07808,0.85989 0.75517,0.8599 0.75517,2.38125 0,1.51585 -0.75517,2.38125 -0.75516,0.8599 -2.07808,0.8599 -1.32843,0 -2.08359,-0.8599 -0.74966,-0.8654 -0.74966,-2.38125 0,-1.52135 0.74966,-2.38125 0.75516,-0.85989 2.08359,-0.85989 z"
       inkscape:connector-curvature="0" />
    <path
       id="path4307"
       style="fill:#00ff00;fill-opacity:1"
       d="m 341.55134,291.25274 0,-3.34036 1.01423,0 0,8.57691 -1.01423,0 0,-0.92604 q -0.31971,0.55121 -0.81029,0.82131 -0.48507,0.26458 -1.16858,0.26458 -1.11896,0 -1.82452,-0.89297 -0.70004,-0.89297 -0.70004,-2.34818 0,-1.4552 0.70004,-2.34817 0.70556,-0.89297 1.82452,-0.89297 0.68351,0 1.16858,0.27009 0.49058,0.26459 0.81029,0.8158 z m -3.45612,2.15525 q 0,1.11897 0.4575,1.75838 0.46303,0.6339 1.2678,0.6339 0.80477,0 1.2678,-0.6339 0.46302,-0.63941 0.46302,-1.75838 0,-1.11896 -0.46302,-1.75286 -0.46303,-0.63941 -1.2678,-0.63941 -0.80477,0 -1.2678,0.63941 -0.4575,0.6339 -0.4575,1.75286 z"
       inkscape:connector-curvature="0" />
    <path
       id="path4309"
       style="fill:#00ff00;fill-opacity:1"
       d="m 344.65468,290.31568 1.01424,0 0,6.17361 -1.01424,0 0,-6.17361 z m 0,-2.4033 1.01424,0 0,1.28433 -1.01424,0 0,-1.28433 z"
       inkscape:connector-curvature="0" />
    <path
       id="path4311"
       style="fill:#00ff00;fill-opacity:1"
       d="m 352.77409,290.31568 0,6.17361 -1.01975,0 0,-5.38538 -2.78364,0 0,5.38538 -1.01975,0 0,-5.38538 -0.97014,0 0,-0.78823 0.97014,0 0,-0.42995 q 0,-1.00873 0.47405,-1.48828 0.47955,-0.48507 1.46623,-0.48507 l 1.01975,0 0,0.84336 -0.97014,0 q -0.5457,0 -0.76068,0.22048 -0.20946,0.22049 -0.20946,0.79375 l 0,0.54571 3.80339,0 z m -1.01975,-2.39228 1.01975,0 0,1.28433 -1.01975,0 0,-1.28433 z"
       inkscape:connector-curvature="0" />
    <path
       id="path4313"
       style="fill:#00ff00;fill-opacity:1"
       d="m 360.18793,293.14892 0,0.4961 -4.66328,0 q 0.0661,1.04731 0.62839,1.59852 0.56775,0.5457 1.57647,0.5457 0.58429,0 1.12999,-0.14331 0.55122,-0.14332 1.09141,-0.42995 l 0,0.95912 q -0.5457,0.23151 -1.11897,0.35277 -0.57326,0.12127 -1.16306,0.12127 -1.47726,0 -2.34267,-0.8599 -0.85989,-0.85989 -0.85989,-2.32612 0,-1.51585 0.8158,-2.4033 0.82131,-0.89297 2.21037,-0.89297 1.24575,0 1.96784,0.80477 0.7276,0.79927 0.7276,2.1773 z m -1.01423,-0.29765 q -0.011,-0.83234 -0.46854,-1.32843 -0.45199,-0.4961 -1.20165,-0.4961 -0.84887,0 -1.3615,0.47956 -0.50712,0.47956 -0.58429,1.35048 l 3.61598,-0.006 z"
       inkscape:connector-curvature="0" />
    <path
       id="path4315"
       style="fill:#00ff00;fill-opacity:1"
       d="m 365.42999,291.26377 q -0.17088,-0.0992 -0.37483,-0.14332 -0.19843,-0.0496 -0.44097,-0.0496 -0.85989,0 -1.32292,0.56224 -0.4575,0.55673 -0.4575,1.60404 l 0,3.25217 -1.01975,0 0,-6.17361 1.01975,0 0,0.95911 q 0.3197,-0.56224 0.83233,-0.83233 0.51263,-0.27561 1.24575,-0.27561 0.10473,0 0.23151,0.0165 0.12678,0.011 0.28112,0.0386 l 0.006,1.0418 z"
       inkscape:connector-curvature="0" />
    <path
       id="path4317"
       style="fill:#00ff00;fill-opacity:1"
       d="m 375.37942,293.14892 0,0.4961 -4.66329,0 q 0.0661,1.04731 0.62839,1.59852 0.56775,0.5457 1.57648,0.5457 0.58428,0 1.12999,-0.14331 0.55121,-0.14332 1.0914,-0.42995 l 0,0.95912 q -0.5457,0.23151 -1.11896,0.35277 -0.57327,0.12127 -1.16307,0.12127 -1.47726,0 -2.34266,-0.8599 -0.8599,-0.85989 -0.8599,-2.32612 0,-1.51585 0.8158,-2.4033 0.82131,-0.89297 2.21037,-0.89297 1.24575,0 1.96784,0.80477 0.72761,0.79927 0.72761,2.1773 z m -1.01424,-0.29765 q -0.011,-0.83234 -0.46853,-1.32843 -0.452,-0.4961 -1.20165,-0.4961 -0.84887,0 -1.3615,0.47956 -0.50712,0.47956 -0.58429,1.35048 l 3.61597,-0.006 z"
       inkscape:connector-curvature="0" />
    <path
       id="path4319"
       style="fill:#00ff00;fill-opacity:1"
       d="m 382.1759,292.76307 0,3.72622 -1.01424,0 0,-3.69314 q 0,-0.87644 -0.34175,-1.3119 -0.34175,-0.43546 -1.02526,-0.43546 -0.82131,0 -1.29536,0.52366 -0.47404,0.52365 -0.47404,1.42765 l 0,3.48919 -1.01975,0 0,-6.17361 1.01975,0 0,0.95911 q 0.3638,-0.55673 0.85438,-0.83233 0.4961,-0.27561 1.14102,-0.27561 1.06384,0 1.60955,0.66146 0.5457,0.65594 0.5457,1.93476 z"
       inkscape:connector-curvature="0" />
    <path
       id="path4321"
       style="fill:#00ff00;fill-opacity:1"
       d="m 390.92921,287.91238 0,0.84336 -0.97014,0 q -0.5457,0 -0.76067,0.22048 -0.20947,0.22049 -0.20947,0.79375 l 0,0.54571 1.67019,0 0,0.78823 -1.67019,0 0,5.38538 -1.01974,0 0,-5.38538 -0.97014,0 0,-0.78823 0.97014,0 0,-0.42995 q 0,-1.03077 0.47955,-1.49931 0.47956,-0.47404 1.52136,-0.47404 l 0.95911,0 z"
       inkscape:connector-curvature="0" />
    <path
       id="path4323"
       style="fill:#00ff00;fill-opacity:1"
       d="m 394.16485,291.02674 q -0.8158,0 -1.28985,0.63941 -0.47404,0.6339 -0.47404,1.74184 0,1.10795 0.46853,1.74736 0.47404,0.63389 1.29536,0.63389 0.81028,0 1.28433,-0.6394 0.47404,-0.63941 0.47404,-1.74185 0,-1.09691 -0.47404,-1.73632 -0.47405,-0.64493 -1.28433,-0.64493 z m 0,-0.85989 q 1.32291,0 2.07808,0.85989 0.75516,0.8599 0.75516,2.38125 0,1.51585 -0.75516,2.38125 -0.75517,0.8599 -2.07808,0.8599 -1.32843,0 -2.0836,-0.8599 -0.74965,-0.8654 -0.74965,-2.38125 0,-1.52135 0.74965,-2.38125 0.75517,-0.85989 2.0836,-0.85989 z"
       inkscape:connector-curvature="0" />
    <path
       id="path4325"
       style="fill:#00ff00;fill-opacity:1"
       d="m 403.8056,292.76307 0,3.72622 -1.01424,0 0,-3.69314 q 0,-0.87644 -0.34175,-1.3119 -0.34175,-0.43546 -1.02526,-0.43546 -0.82131,0 -1.29536,0.52366 -0.47404,0.52365 -0.47404,1.42765 l 0,3.48919 -1.01975,0 0,-6.17361 1.01975,0 0,0.95911 q 0.3638,-0.55673 0.85438,-0.83233 0.4961,-0.27561 1.14102,-0.27561 1.06384,0 1.60955,0.66146 0.5457,0.65594 0.5457,1.93476 z"
       inkscape:connector-curvature="0" />
    <path
       id="path4327"
       style="fill:#00ff00;fill-opacity:1"
       d="m 410.28238,290.5527 0,0.94809 q -0.42995,-0.23702 -0.86541,-0.35278 -0.42994,-0.12127 -0.87092,-0.12127 -0.98667,0 -1.53237,0.62839 -0.54571,0.62287 -0.54571,1.75286 0,1.13 0.54571,1.75838 0.5457,0.62287 1.53237,0.62287 0.44098,0 0.87092,-0.11575 0.43546,-0.12127 0.86541,-0.35829 l 0,0.93707 q -0.42443,0.19843 -0.88194,0.29765 -0.452,0.0992 -0.96463,0.0992 -1.39457,0 -2.21588,-0.87643 -0.82132,-0.87643 -0.82132,-2.36472 0,-1.51033 0.82683,-2.37573 0.83233,-0.86541 2.27652,-0.86541 0.46853,0 0.91501,0.0992 0.44649,0.0937 0.86541,0.28663 z"
       inkscape:connector-curvature="0" />
    <path
       id="path4329"
       style="fill:#00ff00;fill-opacity:1"
       d="m 413.0605,288.56281 0,1.75287 2.0891,0 0,0.78823 -2.0891,0 0,3.35139 q 0,0.75517 0.20395,0.97014 0.20946,0.21498 0.84336,0.21498 l 1.04179,0 0,0.84887 -1.04179,0 q -1.17409,0 -1.62058,-0.43546 -0.44648,-0.44097 -0.44648,-1.59853 l 0,-3.35139 -0.74414,0 0,-0.78823 0.74414,0 0,-1.75287 1.01975,0 z"
       inkscape:connector-curvature="0" />
    <path
       id="path4331"
       style="fill:#00ff00;fill-opacity:1"
       d="m 416.48906,290.31568 1.01424,0 0,6.17361 -1.01424,0 0,-6.17361 z m 0,-2.4033 1.01424,0 0,1.28433 -1.01424,0 0,-1.28433 z"
       inkscape:connector-curvature="0" />
    <path
       id="path4333"
       style="fill:#00ff00;fill-opacity:1"
       d="m 422.01224,291.02674 q -0.8158,0 -1.28984,0.63941 -0.47405,0.6339 -0.47405,1.74184 0,1.10795 0.46854,1.74736 0.47404,0.63389 1.29535,0.63389 0.81029,0 1.28433,-0.6394 0.47405,-0.63941 0.47405,-1.74185 0,-1.09691 -0.47405,-1.73632 -0.47404,-0.64493 -1.28433,-0.64493 z m 0,-0.85989 q 1.32292,0 2.07808,0.85989 0.75517,0.8599 0.75517,2.38125 0,1.51585 -0.75517,2.38125 -0.75516,0.8599 -2.07808,0.8599 -1.32843,0 -2.08359,-0.8599 -0.74965,-0.8654 -0.74965,-2.38125 0,-1.52135 0.74965,-2.38125 0.75516,-0.85989 2.08359,-0.85989 z"
       inkscape:connector-curvature="0" />
    <path
       id="path4335"
       style="fill:#00ff00;fill-opacity:1"
       d="m 431.653,292.76307 0,3.72622 -1.01424,0 0,-3.69314 q 0,-0.87644 -0.34175,-1.3119 -0.34176,-0.43546 -1.02526,-0.43546 -0.82131,0 -1.29536,0.52366 -0.47404,0.52365 -0.47404,1.42765 l 0,3.48919 -1.01975,0 0,-6.17361 1.01975,0 0,0.95911 q 0.3638,-0.55673 0.85438,-0.83233 0.49609,-0.27561 1.14101,-0.27561 1.06385,0 1.60955,0.66146 0.54571,0.65594 0.54571,1.93476 z"
       inkscape:connector-curvature="0" />
    <path
       id="path4337"
       style="fill:#00ff00;fill-opacity:1"
       d="m 205.93032,305.36386 0,-3.34037 1.01423,0 0,8.57691 -1.01423,0 0,-0.92604 q -0.31971,0.55121 -0.81029,0.82131 -0.48507,0.26458 -1.16857,0.26458 -1.11897,0 -1.82453,-0.89297 -0.70004,-0.89296 -0.70004,-2.34817 0,-1.45521 0.70004,-2.34818 0.70556,-0.89297 1.82453,-0.89297 0.6835,0 1.16857,0.2701 0.49058,0.26458 0.81029,0.8158 z m -3.45612,2.15525 q 0,1.11896 0.45751,1.75837 0.46302,0.6339 1.26779,0.6339 0.80478,0 1.2678,-0.6339 0.46302,-0.63941 0.46302,-1.75837 0,-1.11897 -0.46302,-1.75287 -0.46302,-0.63941 -1.2678,-0.63941 -0.80477,0 -1.26779,0.63941 -0.45751,0.6339 -0.45751,1.75287 z"
       inkscape:connector-curvature="0" />
    <path
       id="path4339"
       style="fill:#00ff00;fill-opacity:1"
       d="m 214.3143,307.26004 0,0.49609 -4.66328,0 q 0.0662,1.04731 0.62839,1.59852 0.56775,0.54571 1.57647,0.54571 0.58429,0 1.12999,-0.14332 0.55122,-0.14331 1.09141,-0.42995 l 0,0.95912 q -0.5457,0.23151 -1.11897,0.35278 -0.57326,0.12126 -1.16306,0.12126 -1.47726,0 -2.34267,-0.85989 -0.85989,-0.8599 -0.85989,-2.32613 0,-1.51584 0.8158,-2.4033 0.82131,-0.89297 2.21037,-0.89297 1.24575,0 1.96784,0.80478 0.7276,0.79926 0.7276,2.1773 z m -1.01423,-0.29766 q -0.011,-0.83234 -0.46854,-1.32843 -0.45199,-0.49609 -1.20164,-0.49609 -0.84888,0 -1.36151,0.47955 -0.50711,0.47956 -0.58429,1.35048 l 3.61598,-0.006 z"
       inkscape:connector-curvature="0" />
    <path
       id="path4341"
       style="fill:#00ff00;fill-opacity:1"
       d="m 219.5729,302.02349 1.01423,0 0,8.57691 -1.01423,0 0,-8.57691 z"
       inkscape:connector-curvature="0" />
    <path
       id="path4343"
       style="fill:#00ff00;fill-opacity:1"
       d="m 223.66292,302.37076 0,3.05924 -0.93707,0 0,-3.05924 0.93707,0 z"
       inkscape:connector-curvature="0" />
    <path
       id="path4345"
       style="fill:#00ff00;fill-opacity:1"
       d="m 231.0933,307.26004 0,0.49609 -4.66328,0 q 0.0661,1.04731 0.62838,1.59852 0.56775,0.54571 1.57648,0.54571 0.58429,0 1.12999,-0.14332 0.55121,-0.14331 1.09141,-0.42995 l 0,0.95912 q -0.54571,0.23151 -1.11897,0.35278 -0.57327,0.12126 -1.16307,0.12126 -1.47725,0 -2.34266,-0.85989 -0.8599,-0.8599 -0.8599,-2.32613 0,-1.51584 0.8158,-2.4033 0.82131,-0.89297 2.21038,-0.89297 1.24574,0 1.96783,0.80478 0.72761,0.79926 0.72761,2.1773 z m -1.01424,-0.29766 q -0.011,-0.83234 -0.46853,-1.32843 -0.452,-0.49609 -1.20165,-0.49609 -0.84887,0 -1.3615,0.47955 -0.50712,0.47956 -0.58429,1.35048 l 3.61597,-0.006 z m -0.97565,-5.39089 1.09692,0 -1.79696,2.07257 -0.84336,0 1.5434,-2.07257 z"
       inkscape:connector-curvature="0" />
    <path
       id="path4347"
       style="fill:#00ff00;fill-opacity:1"
       d="m 237.20076,304.66381 0,0.94809 q -0.42994,-0.23702 -0.8654,-0.35278 -0.42995,-0.12126 -0.87092,-0.12126 -0.98668,0 -1.53238,0.62838 -0.54571,0.62288 -0.54571,1.75287 0,1.12999 0.54571,1.75837 0.5457,0.62288 1.53238,0.62288 0.44097,0 0.87092,-0.11576 0.43546,-0.12127 0.8654,-0.35829 l 0,0.93707 q -0.42443,0.19844 -0.88194,0.29765 -0.452,0.0992 -0.96463,0.0992 -1.39457,0 -2.21588,-0.87643 -0.82131,-0.87643 -0.82131,-2.36471 0,-1.51033 0.82682,-2.37574 0.83233,-0.86541 2.27652,-0.86541 0.46853,0 0.91502,0.0992 0.44648,0.0937 0.8654,0.28663 z"
       inkscape:connector-curvature="0" />
    <path
       id="path4349"
       style="fill:#00ff00;fill-opacity:1"
       d="m 242.55306,305.37488 q -0.17087,-0.0992 -0.37482,-0.14332 -0.19844,-0.0496 -0.44097,-0.0496 -0.8599,0 -1.32292,0.56224 -0.45751,0.55673 -0.45751,1.60404 l 0,3.25217 -1.01975,0 0,-6.17361 1.01975,0 0,0.95911 q 0.3197,-0.56224 0.83233,-0.83233 0.51264,-0.27561 1.24575,-0.27561 0.10473,0 0.23151,0.0165 0.12678,0.011 0.28112,0.0386 l 0.006,1.0418 z"
       inkscape:connector-curvature="0" />
    <path
       id="path4351"
       style="fill:#00ff00;fill-opacity:1"
       d="m 246.43362,307.49706 q -1.22921,0 -1.70325,0.28112 -0.47405,0.28112 -0.47405,0.95911 0,0.54019 0.35278,0.8599 0.35829,0.31419 0.97014,0.31419 0.84336,0 1.35048,-0.59531 0.51263,-0.60083 0.51263,-1.59301 l 0,-0.226 -1.00873,0 z m 2.02296,-0.41893 0,3.52227 -1.01423,0 0,-0.93707 q -0.34727,0.56224 -0.86541,0.83234 -0.51814,0.26458 -1.2678,0.26458 -0.94809,0 -1.51033,-0.52916 -0.55672,-0.53468 -0.55672,-1.42765 0,-1.0418 0.69453,-1.57096 0.70004,-0.52917 2.08359,-0.52917 l 1.42214,0 0,-0.0992 q 0,-0.70004 -0.46302,-1.08038 -0.45751,-0.38585 -1.28985,-0.38585 -0.52917,0 -1.03077,0.12678 -0.50161,0.12678 -0.96463,0.38033 l 0,-0.93706 q 0.55673,-0.21498 1.08038,-0.31971 0.52366,-0.11024 1.01975,-0.11024 1.33946,0 2.00091,0.69453 0.66146,0.69453 0.66146,2.10564 z"
       inkscape:connector-curvature="0" />
    <path
       id="path4353"
       style="fill:#00ff00;fill-opacity:1"
       d="m 255.68301,306.87419 0,3.72621 -1.01423,0 0,-3.69314 q 0,-0.87643 -0.34176,-1.31189 -0.34175,-0.43546 -1.02526,-0.43546 -0.82131,0 -1.29535,0.52365 -0.47405,0.52365 -0.47405,1.42765 l 0,3.48919 -1.01975,0 0,-6.17361 1.01975,0 0,0.95911 q 0.36381,-0.55672 0.85439,-0.83233 0.49609,-0.27561 1.14101,-0.27561 1.06385,0 1.60955,0.66146 0.5457,0.65595 0.5457,1.93477 z"
       inkscape:connector-curvature="0" />
    <path
       id="path4355"
       style="fill:#00ff00;fill-opacity:1"
       d="m 261.91726,307.51911 q 0,1.11896 0.45751,1.75837 0.46302,0.6339 1.26779,0.6339 0.80478,0 1.2678,-0.6339 0.46302,-0.63941 0.46302,-1.75837 0,-1.11897 -0.46302,-1.75287 -0.46302,-0.63941 -1.2678,-0.63941 -0.80477,0 -1.26779,0.63941 -0.45751,0.6339 -0.45751,1.75287 z m 3.45612,2.15525 q -0.3197,0.55121 -0.81029,0.82131 -0.48507,0.26458 -1.16857,0.26458 -1.11897,0 -1.82453,-0.89297 -0.70004,-0.89296 -0.70004,-2.34817 0,-1.45521 0.70004,-2.34818 0.70556,-0.89297 1.82453,-0.89297 0.6835,0 1.16857,0.2701 0.49059,0.26458 0.81029,0.8158 l 0,-0.93707 1.01424,0 0,8.52179 -1.01424,0 0,-3.27422 z"
       inkscape:connector-curvature="0" />
    <path
       id="path4357"
       style="fill:#00ff00;fill-opacity:1"
       d="m 268.37199,308.16403 0,-3.73724 1.01423,0 0,3.69865 q 0,0.87644 0.34176,1.31741 0.34175,0.43546 1.02526,0.43546 0.82131,0 1.29535,-0.52366 0.47956,-0.52365 0.47956,-1.42764 l 0,-3.50022 1.01424,0 0,6.17361 -1.01424,0 0,-0.94809 q -0.36931,0.56224 -0.8599,0.83785 -0.48506,0.27009 -1.12999,0.27009 -1.06384,0 -1.61506,-0.66146 -0.55121,-0.66145 -0.55121,-1.93476 z m 2.55212,-3.88607 0,0 z"
       inkscape:connector-curvature="0" />
    <path
       id="path4359"
       style="fill:#00ff00;fill-opacity:1"
       d="m 275.64252,304.42679 1.01424,0 0,6.17361 -1.01424,0 0,-6.17361 z m 0,-2.4033 1.01424,0 0,1.28433 -1.01424,0 0,-1.28433 z"
       inkscape:connector-curvature="0" />
    <path
       id="path4361"
       style="fill:#00ff00;fill-opacity:1"
       d="m 286.30303,304.60869 0,0.95911 q -0.42995,-0.22048 -0.89297,-0.33072 -0.46302,-0.11025 -0.95912,-0.11025 -0.75516,0 -1.1355,0.23151 -0.37483,0.23151 -0.37483,0.69453 0,0.35278 0.2701,0.55673 0.2701,0.19844 1.08589,0.38034 l 0.34727,0.0772 q 1.08038,0.23151 1.53238,0.65595 0.45751,0.41892 0.45751,1.17409 0,0.85989 -0.68351,1.3615 -0.67799,0.5016 -1.86862,0.5016 -0.49609,0 -1.03628,-0.0992 -0.53468,-0.0937 -1.13,-0.28663 l 0,-1.04731 q 0.56224,0.29215 1.10795,0.44098 0.5457,0.14331 1.08038,0.14331 0.71658,0 1.10243,-0.24253 0.38585,-0.24805 0.38585,-0.69453 0,-0.41342 -0.28112,-0.6339 -0.27561,-0.22049 -1.21819,-0.42444 l -0.35277,-0.0827 q -0.94258,-0.19844 -1.36151,-0.60634 -0.41892,-0.41341 -0.41892,-1.12999 0,-0.87092 0.61736,-1.34496 0.61736,-0.47405 1.75287,-0.47405 0.56224,0 1.05833,0.0827 0.49609,0.0827 0.91502,0.24805 z"
       inkscape:connector-curvature="0" />
    <path
       id="path4363"
       style="fill:#00ff00;fill-opacity:1"
       d="m 293.53497,307.26004 0,0.49609 -4.66328,0 q 0.0661,1.04731 0.62839,1.59852 0.56775,0.54571 1.57647,0.54571 0.58429,0 1.12999,-0.14332 0.55122,-0.14331 1.09141,-0.42995 l 0,0.95912 q -0.5457,0.23151 -1.11897,0.35278 -0.57326,0.12126 -1.16306,0.12126 -1.47726,0 -2.34267,-0.85989 -0.85989,-0.8599 -0.85989,-2.32613 0,-1.51584 0.8158,-2.4033 0.82131,-0.89297 2.21037,-0.89297 1.24575,0 1.96784,0.80478 0.7276,0.79926 0.7276,2.1773 z m -1.01423,-0.29766 q -0.011,-0.83234 -0.46854,-1.32843 -0.45199,-0.49609 -1.20165,-0.49609 -0.84887,0 -1.3615,0.47955 -0.50712,0.47956 -0.58429,1.35048 l 3.61598,-0.006 z"
       inkscape:connector-curvature="0" />
    <path
       id="path4365"
       style="fill:#00ff00;fill-opacity:1"
       d="m 298.77703,305.37488 q -0.17088,-0.0992 -0.37483,-0.14332 -0.19844,-0.0496 -0.44097,-0.0496 -0.8599,0 -1.32292,0.56224 -0.45751,0.55673 -0.45751,1.60404 l 0,3.25217 -1.01974,0 0,-6.17361 1.01974,0 0,0.95911 q 0.31971,-0.56224 0.83234,-0.83233 0.51263,-0.27561 1.24575,-0.27561 0.10473,0 0.23151,0.0165 0.12678,0.011 0.28112,0.0386 l 0.006,1.0418 z"
       inkscape:connector-curvature="0" />
    <path
       id="path4367"
       style="fill:#00ff00;fill-opacity:1"
       d="m 302.65759,307.49706 q -1.22921,0 -1.70326,0.28112 -0.47404,0.28112 -0.47404,0.95911 0,0.54019 0.35277,0.8599 0.35829,0.31419 0.97014,0.31419 0.84336,0 1.35048,-0.59531 0.51263,-0.60083 0.51263,-1.59301 l 0,-0.226 -1.00872,0 z m 2.02296,-0.41893 0,3.52227 -1.01424,0 0,-0.93707 q -0.34726,0.56224 -0.86541,0.83234 -0.51814,0.26458 -1.26779,0.26458 -0.94809,0 -1.51033,-0.52916 -0.55673,-0.53468 -0.55673,-1.42765 0,-1.0418 0.69453,-1.57096 0.70005,-0.52917 2.0836,-0.52917 l 1.42213,0 0,-0.0992 q 0,-0.70004 -0.46302,-1.08038 -0.45751,-0.38585 -1.28984,-0.38585 -0.52917,0 -1.03078,0.12678 -0.5016,0.12678 -0.96462,0.38033 l 0,-0.93706 q 0.55672,-0.21498 1.08038,-0.31971 0.52365,-0.11024 1.01975,-0.11024 1.33945,0 2.00091,0.69453 0.66146,0.69453 0.66146,2.10564 z"
       inkscape:connector-curvature="0" />
    <path
       id="path4369"
       style="fill:#00ff00;fill-opacity:1"
       d="m 310.26436,308.16403 0,-3.73724 1.01424,0 0,3.69865 q 0,0.87644 0.34175,1.31741 0.34175,0.43546 1.02526,0.43546 0.82131,0 1.29536,-0.52366 0.47955,-0.52365 0.47955,-1.42764 l 0,-3.50022 1.01424,0 0,6.17361 -1.01424,0 0,-0.94809 q -0.36931,0.56224 -0.85989,0.83785 -0.48507,0.27009 -1.12999,0.27009 -1.06385,0 -1.61507,-0.66146 -0.55121,-0.66145 -0.55121,-1.93476 z m 2.55213,-3.88607 0,0 z"
       inkscape:connector-curvature="0" />
    <path
       id="path4371"
       style="fill:#00ff00;fill-opacity:1"
       d="m 318.5381,302.67392 0,1.75287 2.0891,0 0,0.78824 -2.0891,0 0,3.35139 q 0,0.75516 0.20395,0.97014 0.20946,0.21497 0.84336,0.21497 l 1.04179,0 0,0.84887 -1.04179,0 q -1.17409,0 -1.62058,-0.43546 -0.44648,-0.44097 -0.44648,-1.59852 l 0,-3.35139 -0.74414,0 0,-0.78824 0.74414,0 0,-1.75287 1.01975,0 z"
       inkscape:connector-curvature="0" />
    <path
       id="path4373"
       style="fill:#00ff00;fill-opacity:1"
       d="m 321.96665,304.42679 1.01424,0 0,6.17361 -1.01424,0 0,-6.17361 z m 0,-2.4033 1.01424,0 0,1.28433 -1.01424,0 0,-1.28433 z"
       inkscape:connector-curvature="0" />
    <path
       id="path4375"
       style="fill:#00ff00;fill-opacity:1"
       d="m 325.09756,302.02349 1.01424,0 0,8.57691 -1.01424,0 0,-8.57691 z"
       inkscape:connector-curvature="0" />
    <path
       id="path4377"
       style="fill:#00ff00;fill-opacity:1"
       d="m 328.22847,304.42679 1.01423,0 0,6.17361 -1.01423,0 0,-6.17361 z m 0,-2.4033 1.01423,0 0,1.28433 -1.01423,0 0,-1.28433 z"
       inkscape:connector-curvature="0" />
    <path
       id="path4379"
       style="fill:#00ff00;fill-opacity:1"
       d="m 335.29504,304.60869 0,0.95911 q -0.42995,-0.22048 -0.89297,-0.33072 -0.46302,-0.11025 -0.95911,-0.11025 -0.75517,0 -1.13551,0.23151 -0.37482,0.23151 -0.37482,0.69453 0,0.35278 0.27009,0.55673 0.2701,0.19844 1.0859,0.38034 l 0.34726,0.0772 q 1.08038,0.23151 1.53238,0.65595 0.45751,0.41892 0.45751,1.17409 0,0.85989 -0.68351,1.3615 -0.67799,0.5016 -1.86862,0.5016 -0.49609,0 -1.03628,-0.0992 -0.53468,-0.0937 -1.12999,-0.28663 l 0,-1.04731 q 0.56224,0.29215 1.10794,0.44098 0.5457,0.14331 1.08038,0.14331 0.71658,0 1.10243,-0.24253 0.38585,-0.24805 0.38585,-0.69453 0,-0.41342 -0.28112,-0.6339 -0.27561,-0.22049 -1.21818,-0.42444 l -0.35278,-0.0827 q -0.94258,-0.19844 -1.3615,-0.60634 -0.41893,-0.41341 -0.41893,-1.12999 0,-0.87092 0.61736,-1.34496 0.61737,-0.47405 1.75287,-0.47405 0.56224,0 1.05833,0.0827 0.4961,0.0827 0.91502,0.24805 z"
       inkscape:connector-curvature="0" />
    <path
       id="path4381"
       style="fill:#00ff00;fill-opacity:1"
       d="m 342.52698,307.26004 0,0.49609 -4.66328,0 q 0.0661,1.04731 0.62839,1.59852 0.56775,0.54571 1.57647,0.54571 0.58429,0 1.12999,-0.14332 0.55122,-0.14331 1.09141,-0.42995 l 0,0.95912 q -0.5457,0.23151 -1.11897,0.35278 -0.57326,0.12126 -1.16306,0.12126 -1.47726,0 -2.34267,-0.85989 -0.85989,-0.8599 -0.85989,-2.32613 0,-1.51584 0.8158,-2.4033 0.82131,-0.89297 2.21037,-0.89297 1.24575,0 1.96784,0.80478 0.7276,0.79926 0.7276,2.1773 z m -1.01423,-0.29766 q -0.011,-0.83234 -0.46854,-1.32843 -0.45199,-0.49609 -1.20165,-0.49609 -0.84887,0 -1.3615,0.47955 -0.50712,0.47956 -0.58429,1.35048 l 3.61598,-0.006 z m -0.97565,-5.39089 1.09691,0 -1.79696,2.07257 -0.84336,0 1.54341,-2.07257 z"
       inkscape:connector-curvature="0" />
  </g>
</svg>
