<?xml version="1.0" encoding="UTF-8" standalone="no"?>
<svg
   xmlns:dc="http://purl.org/dc/elements/1.1/"
   xmlns:cc="http://creativecommons.org/ns#"
   xmlns:rdf="http://www.w3.org/1999/02/22-rdf-syntax-ns#"
   xmlns:svg="http://www.w3.org/2000/svg"
   xmlns="http://www.w3.org/2000/svg"
   xmlns:sodipodi="http://sodipodi.sourceforge.net/DTD/sodipodi-0.dtd"
   xmlns:inkscape="http://www.inkscape.org/namespaces/inkscape"
   width="600mm"
   height="800mm"
   viewBox="0 0 600.00001 800.00003"
   version="1.1"
   id="svg2"
   inkscape:version="0.91 r13725"
   sodipodi:docname="panneau_lateral.svg">
  <metadata
     id="metadata72">
    <rdf:RDF>
      <cc:Work
         rdf:about="">
        <dc:format>image/svg+xml</dc:format>
        <dc:type
           rdf:resource="http://purl.org/dc/dcmitype/StillImage" />
        <dc:title></dc:title>
      </cc:Work>
    </rdf:RDF>
  </metadata>
  <defs
     id="defs70" />
  <sodipodi:namedview
     pagecolor="#ffffff"
     bordercolor="#666666"
     borderopacity="1"
     objecttolerance="10"
     gridtolerance="10"
     guidetolerance="10"
     inkscape:pageopacity="0"
     inkscape:pageshadow="2"
     inkscape:window-width="1920"
     inkscape:window-height="1017"
     id="namedview68"
     showgrid="false"
     inkscape:document-units="mm"
     inkscape:zoom="0.25433012"
     inkscape:cx="1761.5082"
     inkscape:cy="1161.2468"
     inkscape:window-x="-8"
     inkscape:window-y="-8"
     inkscape:window-maximized="1"
     inkscape:current-layer="svg2" />
  <path
     inkscape:connector-curvature="0"
     style="fill:none;fill-rule:evenodd;stroke:#ff0000;stroke-width:0.01;stroke-miterlimit:4;stroke-dasharray:none;stroke-opacity:1"
     d="m 125.40093,796.34045 213.24699,0 0,-10 50,0 0,10 100,0 0,-10 50,0 0,10 45.323,0 0,-50 10,0 0,-273.20036 -10,0 0,-50 10,0 0,-273.20037 -10,0 0,-49.999999 10,0 A 15,15 0 0 0 581.80787,85.210444 l -102.17759,-19.68 a 15,15 0 0 0 -17.56622,11.89234 l -20.8856,108.436976 a 439.72036,439.72036 0 0 1 0.16899,0.76674 l 0.0191,-0.0991 9.81952,1.8913 -1.8913,9.81952 -5.77692,-1.11267 a 439.72036,439.72036 0 0 1 -333.11691,512.2949 l 0,71.92 a 15,15 0 0 0 14.99999,15 z m 286.91666,-119.31415 -49.41413,7.63178 -1.52636,-9.88283 49.41413,-7.63178 1.52636,9.88283 z m -1.36483,-64.65748 9.84807,1.73648 -8.6824,49.24039 -9.84808,-1.73648 8.68241,-49.24039 z m 73.62682,-417.55849 -8.6824,49.24039 9.84807,1.73648 8.68241,-49.24039 -9.84808,-1.73648 z m -36.81341,208.77925 9.84808,1.73648 -8.68241,49.24038 -9.84808,-1.73648 8.68241,-49.24038 z m -218.87382,301.76589 -1.52636,-9.88283 49.41413,-7.63178 1.52636,9.88283 -49.41413,7.63178 z m 19.75557,70.63498 -10,0 0,-50 10,0 0,50 z m 248.07457,-682.750566 49.09761,9.456486 1.89129,-9.819516 -49.0976,-9.45649 -1.8913,9.81952 z"
     id="Part__Feature_f0004" />
</svg>
