<?xml version="1.0" encoding="UTF-8" standalone="no"?>
<svg
   xmlns:dc="http://purl.org/dc/elements/1.1/"
   xmlns:cc="http://creativecommons.org/ns#"
   xmlns:rdf="http://www.w3.org/1999/02/22-rdf-syntax-ns#"
   xmlns:svg="http://www.w3.org/2000/svg"
   xmlns="http://www.w3.org/2000/svg"
   xmlns:sodipodi="http://sodipodi.sourceforge.net/DTD/sodipodi-0.dtd"
   xmlns:inkscape="http://www.inkscape.org/namespaces/inkscape"
   width="591.6mm"
   height="707.6mm"
   viewBox="0 0 591.6 707.6"
   version="1.1"
   id="svg2"
   inkscape:version="0.91 r13725"
   sodipodi:docname="arriere.svg">
  <metadata
     id="metadata65">
    <rdf:RDF>
      <cc:Work
         rdf:about="">
        <dc:format>image/svg+xml</dc:format>
        <dc:type
           rdf:resource="http://purl.org/dc/dcmitype/StillImage" />
      </cc:Work>
    </rdf:RDF>
  </metadata>
  <defs
     id="defs63" />
  <sodipodi:namedview
     pagecolor="#ffffff"
     bordercolor="#666666"
     borderopacity="1"
     objecttolerance="10"
     gridtolerance="10"
     guidetolerance="10"
     inkscape:pageopacity="0"
     inkscape:pageshadow="2"
     inkscape:window-width="1920"
     inkscape:window-height="1017"
     id="namedview61"
     showgrid="false"
     inkscape:zoom="0.26623209"
     inkscape:cx="867.50345"
     inkscape:cy="1341.0773"
     inkscape:window-x="-8"
     inkscape:window-y="-8"
     inkscape:window-maximized="1"
     inkscape:current-layer="svg2" />
  <path
     inkscape:connector-curvature="0"
     style="fill:none;fill-rule:evenodd;stroke:#ff0000;stroke-width:0.01;stroke-miterlimit:4;stroke-dasharray:none;stroke-opacity:1"
     d="m 18.980184,706.04025 -10.0000004,0 0,-50 10.0000004,0 0,-273 -10.0000004,0 0,-50 10.0000004,0 0,-273.000006 -10.0000004,0 0,-50 10.0000004,0 559.999966,0 10,0 0,50 -10,0 0,273.000006 10,0 0,50 -10,0 0,273 10,0 0,50 -10,0 -100,0 0,-10 -50,0 0,10 -259.99997,0 0,-10 -50,0 0,10 -99.999996,0 z m 81,-56.5 -27,0 0,-21 27,0 0,21 z m 12.334996,-173.17 a 15,15 0 0 0 15,15 l 343.33997,0 a 15,15 0 0 0 15,-15 l 0,-292 a 15,15 0 0 0 -15,-15 l -343.33997,0 a 15,15 0 0 0 -15,15 l 0,292 z m -38.634996,194.17 5.3,5.5 15,0 5.3,-5.5 0,-11.5 a 1.5,1.5 0 0 0 -1.5,-1.5 l -22.6,0 a 1.5,1.5 0 0 0 -1.5,1.5 l 0,11.5 z"
     id="Part__Feature_f0003" />
</svg>
