<?xml version="1.0" encoding="UTF-8" standalone="no"?>
<svg
   xmlns:dc="http://purl.org/dc/elements/1.1/"
   xmlns:cc="http://creativecommons.org/ns#"
   xmlns:rdf="http://www.w3.org/1999/02/22-rdf-syntax-ns#"
   xmlns:svg="http://www.w3.org/2000/svg"
   xmlns="http://www.w3.org/2000/svg"
   xmlns:sodipodi="http://sodipodi.sourceforge.net/DTD/sodipodi-0.dtd"
   xmlns:inkscape="http://www.inkscape.org/namespaces/inkscape"
   width="591.6mm"
   height="197.2mm"
   viewBox="0 0 591.6 197.2"
   version="1.1"
   id="svg2"
   inkscape:version="0.91 r13725"
   sodipodi:docname="controles.svg">
  <metadata
     id="metadata75">
    <rdf:RDF>
      <cc:Work
         rdf:about="">
        <dc:format>image/svg+xml</dc:format>
        <dc:type
           rdf:resource="http://purl.org/dc/dcmitype/StillImage" />
      </cc:Work>
    </rdf:RDF>
  </metadata>
  <defs
     id="defs73" />
  <sodipodi:namedview
     pagecolor="#ffffff"
     bordercolor="#666666"
     borderopacity="1"
     objecttolerance="10"
     gridtolerance="10"
     guidetolerance="10"
     inkscape:pageopacity="0"
     inkscape:pageshadow="2"
     inkscape:window-width="1920"
     inkscape:window-height="1017"
     id="namedview71"
     showgrid="false"
     inkscape:zoom="0.33965894"
     inkscape:cx="999.90257"
     inkscape:cy="469.0058"
     inkscape:window-x="-8"
     inkscape:window-y="-8"
     inkscape:window-maximized="1"
     inkscape:current-layer="svg2" />
  <g
     id="g4275">
    <circle
       transform="scale(1,-1)"
       cx="105.8"
       cy="-74.660004"
       r="1.8"
       style="fill:none;stroke:#ff0000;stroke-width:0.01;stroke-miterlimit:4;stroke-dasharray:none;stroke-opacity:1"
       id="circle8" />
    <circle
       transform="scale(1,-1)"
       cx="385.79999"
       cy="-74.660004"
       r="1.8"
       style="fill:none;stroke:#ff0000;stroke-width:0.01;stroke-miterlimit:4;stroke-dasharray:none;stroke-opacity:1"
       id="circle10" />
    <path
       d="m 575.8,191.4 -560,0 0,0 560,0 0,0 z m -560,0 -10,0 0,0 10,0 0,0 z m 570,0 0,0 -10,0 0,0 10,0 z m -580,0 0,-50 0,0 0,50 0,0 z m 580,-50 0,0 0,50 0,0 0,-50 z m -580,0 10,0 0,0 -10,0 0,0 z m 570,0 0,0 10,0 0,0 -10,0 z m -560,0 0,-85.6 0,0 0,85.6 0,0 z m 560,-85.6 0,0 0,85.6 0,0 0,-85.6 z m -560,0 -10,0 0,0 10,0 0,0 z m 570,0 0,0 -10,0 0,0 10,0 z m -580,0 0,-50 0,0 0,50 0,0 z m 580,-50 0,0 0,50 0,0 0,-50 z m -580,0 10,0 0,0 -10,0 0,0 z m 570,0 0,0 10,0 0,0 -10,0 z m -560,0 560,0 0,0 -560,0 0,0 z"
       style="fill:none;fill-rule:evenodd;stroke:#ff0000;stroke-width:0.01;stroke-miterlimit:4;stroke-dasharray:none;stroke-opacity:1"
       id="Pocket_f0017" />
    <circle
       transform="scale(1,-1)"
       cx="345.79999"
       cy="-74.660004"
       r="1.8"
       style="fill:none;stroke:#ff0000;stroke-width:0.01;stroke-miterlimit:4;stroke-dasharray:none;stroke-opacity:1"
       id="circle27" />
    <circle
       transform="scale(1,-1)"
       cx="240.8"
       cy="-66.139999"
       r="14"
       style="fill:none;stroke:#ff0000;stroke-width:0.01;stroke-miterlimit:4;stroke-dasharray:none;stroke-opacity:1"
       id="circle29" />
    <circle
       transform="scale(1,-1)"
       cx="85.800003"
       cy="-117.16"
       r="8"
       style="fill:none;stroke:#ff0000;stroke-width:0.01;stroke-miterlimit:4;stroke-dasharray:none;stroke-opacity:1"
       id="circle31" />
    <circle
       transform="scale(1,-1)"
       cx="150.8"
       cy="-133.64"
       r="14"
       style="fill:none;stroke:#ff0000;stroke-width:0.01;stroke-miterlimit:4;stroke-dasharray:none;stroke-opacity:1"
       id="circle33" />
    <circle
       transform="scale(1,-1)"
       cx="150.8"
       cy="-88.639999"
       r="14"
       style="fill:none;stroke:#ff0000;stroke-width:0.01;stroke-miterlimit:4;stroke-dasharray:none;stroke-opacity:1"
       id="circle35" />
    <circle
       transform="scale(1,-1)"
       cx="240.8"
       cy="-111.14"
       r="14"
       style="fill:none;stroke:#ff0000;stroke-width:0.01;stroke-miterlimit:4;stroke-dasharray:none;stroke-opacity:1"
       id="circle37" />
    <circle
       transform="scale(1,-1)"
       cx="195.8"
       cy="-111.14"
       r="14"
       style="fill:none;stroke:#ff0000;stroke-width:0.01;stroke-miterlimit:4;stroke-dasharray:none;stroke-opacity:1"
       id="circle39" />
    <circle
       transform="scale(1,-1)"
       cx="195.8"
       cy="-66.139999"
       r="14"
       style="fill:none;stroke:#ff0000;stroke-width:0.01;stroke-miterlimit:4;stroke-dasharray:none;stroke-opacity:1"
       id="circle41" />
    <circle
       transform="scale(1,-1)"
       cx="65.800003"
       cy="-74.660004"
       r="1.8"
       style="fill:none;stroke:#ff0000;stroke-width:0.01;stroke-miterlimit:4;stroke-dasharray:none;stroke-opacity:1"
       id="circle43" />
    <circle
       transform="scale(1,-1)"
       cx="475.79999"
       cy="-111.14"
       r="14"
       style="fill:none;stroke:#ff0000;stroke-width:0.01;stroke-miterlimit:4;stroke-dasharray:none;stroke-opacity:1"
       id="circle45" />
    <circle
       transform="scale(1,-1)"
       cx="430.79999"
       cy="-133.64"
       r="14"
       style="fill:none;stroke:#ff0000;stroke-width:0.01;stroke-miterlimit:4;stroke-dasharray:none;stroke-opacity:1"
       id="circle47" />
    <circle
       transform="scale(1,-1)"
       cx="365.79999"
       cy="-117.16"
       r="8"
       style="fill:none;stroke:#ff0000;stroke-width:0.01;stroke-miterlimit:4;stroke-dasharray:none;stroke-opacity:1"
       id="circle49" />
    <circle
       transform="scale(1,-1)"
       cx="475.79999"
       cy="-66.139999"
       r="14"
       style="fill:none;stroke:#ff0000;stroke-width:0.01;stroke-miterlimit:4;stroke-dasharray:none;stroke-opacity:1"
       id="circle51" />
    <circle
       transform="scale(1,-1)"
       cx="430.79999"
       cy="-88.639999"
       r="14"
       style="fill:none;stroke:#ff0000;stroke-width:0.01;stroke-miterlimit:4;stroke-dasharray:none;stroke-opacity:1"
       id="circle55" />
    <circle
       transform="scale(1,-1)"
       cx="385.79999"
       cy="-159.66"
       r="1.8"
       style="fill:none;stroke:#ff0000;stroke-width:0.01;stroke-miterlimit:4;stroke-dasharray:none;stroke-opacity:1"
       id="circle57" />
    <circle
       transform="scale(1,-1)"
       cx="345.79999"
       cy="-159.66"
       r="1.8"
       style="fill:none;stroke:#ff0000;stroke-width:0.01;stroke-miterlimit:4;stroke-dasharray:none;stroke-opacity:1"
       id="circle59" />
    <circle
       transform="scale(1,-1)"
       cx="65.800003"
       cy="-159.66"
       r="1.8"
       style="fill:none;stroke:#ff0000;stroke-width:0.01;stroke-miterlimit:4;stroke-dasharray:none;stroke-opacity:1"
       id="circle61" />
    <circle
       transform="scale(1,-1)"
       cx="105.8"
       cy="-159.66"
       r="1.8"
       style="fill:none;stroke:#ff0000;stroke-width:0.01;stroke-miterlimit:4;stroke-dasharray:none;stroke-opacity:1"
       id="circle63" />
    <circle
       transform="scale(1,-1)"
       cx="520.79999"
       cy="-111.14"
       r="14"
       style="fill:none;stroke:#ff0000;stroke-width:0.01;stroke-miterlimit:4;stroke-dasharray:none;stroke-opacity:1"
       id="circle65" />
    <circle
       transform="scale(1,-1)"
       cx="520.79999"
       cy="-66.139999"
       r="14"
       style="fill:none;stroke:#ff0000;stroke-width:0.01;stroke-miterlimit:4;stroke-dasharray:none;stroke-opacity:1"
       id="circle67" />
  </g>
</svg>
