<?xml version="1.0" encoding="UTF-8" standalone="no"?>
<svg
   xmlns:dc="http://purl.org/dc/elements/1.1/"
   xmlns:cc="http://creativecommons.org/ns#"
   xmlns:rdf="http://www.w3.org/1999/02/22-rdf-syntax-ns#"
   xmlns:svg="http://www.w3.org/2000/svg"
   xmlns="http://www.w3.org/2000/svg"
   xmlns:sodipodi="http://sodipodi.sourceforge.net/DTD/sodipodi-0.dtd"
   xmlns:inkscape="http://www.inkscape.org/namespaces/inkscape"
   width="571.2mm"
   height="101.9mm"
   viewBox="0 0 571.2 101.9"
   version="1.1"
   id="svg2"
   inkscape:version="0.91 r13725"
   sodipodi:docname="controles_avant.svg">
  <metadata
     id="metadata37">
    <rdf:RDF>
      <cc:Work
         rdf:about="">
        <dc:format>image/svg+xml</dc:format>
        <dc:type
           rdf:resource="http://purl.org/dc/dcmitype/StillImage" />
      </cc:Work>
    </rdf:RDF>
  </metadata>
  <defs
     id="defs35" />
  <sodipodi:namedview
     pagecolor="#ffffff"
     bordercolor="#666666"
     borderopacity="1"
     objecttolerance="10"
     gridtolerance="10"
     guidetolerance="10"
     inkscape:pageopacity="0"
     inkscape:pageshadow="2"
     inkscape:window-width="1920"
     inkscape:window-height="1017"
     id="namedview33"
     showgrid="false"
     inkscape:zoom="0.49750562"
     inkscape:cx="1152.7552"
     inkscape:cy="105.93781"
     inkscape:window-x="-8"
     inkscape:window-y="-8"
     inkscape:window-maximized="1"
     inkscape:current-layer="svg2" />
  <circle
     id="circle6"
     style="fill:none;stroke:#ff0000;stroke-width:0.01;stroke-miterlimit:4;stroke-dasharray:none;stroke-opacity:1"
     r="14"
     cy="-61.299999"
     cx="285.60001"
     transform="scale(1,-1)" />
  <circle
     id="circle9"
     style="fill:none;stroke:#ff0000;stroke-width:0.01;stroke-miterlimit:4;stroke-dasharray:none;stroke-opacity:1"
     r="14"
     cy="-51.299999"
     cx="123.1"
     transform="scale(1,-1)" />
  <path
     id="Part__Feature_f0013"
     style="fill:none;fill-rule:evenodd;stroke:#ff0000;stroke-width:0.01;stroke-miterlimit:4;stroke-dasharray:none;stroke-opacity:1"
     d="m 565.6,5.6 -560,0 0,0 560,0 0,0 z m 0,0 0,0 0,90.7 0,0 0,-90.7 z m 0,90.7 0,0 -100,0 0,0 100,0 z m -100,-10 0,0 0,10 0,0 0,-10 z m -50,0 0,0 50,0 0,0 -50,0 z m 0,10 0,0 0,-10 0,0 0,10 z m -260,0 0,0 260,0 0,0 -260,0 z m 0,0 0,-10 0,0 0,10 0,0 z m 0,-10 -50,0 0,0 50,0 0,0 z M 5.6,5.6 l 0,90.7 0,0 0,-90.7 0,0 z m 100,80.7 0,10 0,0 0,-10 0,0 z m -100,10 0,0 100,0 0,0 -100,0 z" />
  <circle
     id="circle23"
     style="fill:none;stroke:#ff0000;stroke-width:0.01;stroke-miterlimit:4;stroke-dasharray:none;stroke-opacity:1"
     r="14"
     cy="-51.299999"
     cx="403.10001"
     transform="scale(1,-1)" />
  <circle
     id="circle25"
     style="fill:none;stroke:#ff0000;stroke-width:0.01;stroke-miterlimit:4;stroke-dasharray:none;stroke-opacity:1"
     r="14"
     cy="-51.299999"
     cx="123.1"
     transform="scale(1,-1)" />
  <circle
     id="circle27"
     style="fill:none;stroke:#ff0000;stroke-width:0.01;stroke-miterlimit:4;stroke-dasharray:none;stroke-opacity:1"
     r="14"
     cy="-51.299999"
     cx="168.10001"
     transform="scale(1,-1)" />
  <circle
     id="circle29"
     style="fill:none;stroke:#ff0000;stroke-width:0.01;stroke-miterlimit:4;stroke-dasharray:none;stroke-opacity:1"
     r="14"
     cy="-51.299999"
     cx="448.10001"
     transform="scale(1,-1)" />
</svg>
