<?xml version="1.0" encoding="UTF-8" standalone="no"?>
<svg
   xmlns:dc="http://purl.org/dc/elements/1.1/"
   xmlns:cc="http://creativecommons.org/ns#"
   xmlns:rdf="http://www.w3.org/1999/02/22-rdf-syntax-ns#"
   xmlns:svg="http://www.w3.org/2000/svg"
   xmlns="http://www.w3.org/2000/svg"
   xmlns:sodipodi="http://sodipodi.sourceforge.net/DTD/sodipodi-0.dtd"
   xmlns:inkscape="http://www.inkscape.org/namespaces/inkscape"
   width="591.6mm"
   height="485.6mm"
   viewBox="0 0 591.6 485.6"
   version="1.1"
   id="svg2"
   inkscape:version="0.91 r13725"
   sodipodi:docname="ecran.svg">
  <metadata
     id="metadata53">
    <rdf:RDF>
      <cc:Work
         rdf:about="">
        <dc:format>image/svg+xml</dc:format>
        <dc:type
           rdf:resource="http://purl.org/dc/dcmitype/StillImage" />
      </cc:Work>
    </rdf:RDF>
  </metadata>
  <defs
     id="defs51" />
  <sodipodi:namedview
     pagecolor="#ffffff"
     bordercolor="#666666"
     borderopacity="1"
     objecttolerance="10"
     gridtolerance="10"
     guidetolerance="10"
     inkscape:pageopacity="0"
     inkscape:pageshadow="2"
     inkscape:window-width="1920"
     inkscape:window-height="1017"
     id="namedview49"
     showgrid="false"
     inkscape:zoom="0.19397221"
     inkscape:cx="1287.4496"
     inkscape:cy="1514.9675"
     inkscape:window-x="-8"
     inkscape:window-y="-8"
     inkscape:window-maximized="1"
     inkscape:current-layer="svg2" />
  <path
     inkscape:connector-curvature="0"
     style="fill:none;fill-rule:evenodd;stroke:#ff0000;stroke-width:0.34999999;stroke-miterlimit:4;stroke-dasharray:none;stroke-opacity:1"
     d="m 585.75197,478.40041 0,-50 -10,0 0,-162 10,0 0,-49.99999 -10,0 0,-162.000009 10,0 0,-50.0000008 -10,0 -105,0 0,9.9999998 -50,0 0,-9.9999998 -250.00001,0 0,9.9999998 -50,0 0,-9.9999998 -104.999998,0 -10,0 0,50.0000008 10,0 0,162.000009 -10,0 0,49.99999 10,0 0,162 -10,0 0,50 10,0 559.999998,0 10,0 z m -95.5,-430.302529 -379.00001,0 0,305.000009 379,0 0,-305.000009 z M 94.251962,368.09789 l 0,44.99999 412.999998,0 0,-44.99999 -412.999998,0 z"
     id="Part__Feature_f0003" />
</svg>
